<svg width="220" height="80" viewBox="0 0 220 80" fill="none" xmlns="http://www.w3.org/2000/svg">
<g clip-path="url(#clip0_4575_81131)">
<mask id="mask0_4575_81131" style="mask-type:alpha" maskUnits="userSpaceOnUse" x="1" y="-16" width="215" height="96">
<rect x="1" y="-16" width="214.46" height="95.7411" fill="#C4C4C4"/>
</mask>
<g mask="url(#mask0_4575_81131)">
<path d="M200.268 68.2198C213.235 55.2535 213.235 34.2309 200.268 21.2646C187.302 8.29824 166.279 8.29824 153.313 21.2646C140.347 34.2309 140.347 55.2535 153.313 68.2198C166.279 81.1861 187.302 81.1861 200.268 68.2198Z" fill="#202326"/>
<path d="M67.071 68.2198C80.0374 55.2535 80.0374 34.2309 67.071 21.2646C54.1047 8.29824 33.0821 8.29824 20.1158 21.2646C7.14947 34.2309 7.14947 55.2535 20.1158 68.2198C33.0821 81.1861 54.1047 81.1861 67.071 68.2198Z" fill="#202326"/>
<path d="M132.578 68.2198C145.544 55.2535 145.544 34.2309 132.578 21.2646C119.612 8.29824 98.589 8.29824 85.6226 21.2646C72.6563 34.2309 72.6563 55.2535 85.6226 68.2198C98.589 81.1861 119.612 81.1861 132.578 68.2198Z" fill="#202326"/>
<path d="M164.361 33.3586C165.335 33.7287 166.271 34.1927 167.156 34.7442L168.573 32.0201C168.645 31.8661 168.805 31.5582 169.022 31.1623C169.737 29.8395 171.051 27.549 171.634 26.9143C172.393 26.0911 172.816 26.9143 172.503 27.4767C172.258 27.9166 171.023 30.8858 170.467 32.2181L170.521 32.2558C171.148 31.0492 172.691 28.3313 173.343 27.6338C174.102 26.8106 174.526 27.6338 174.212 28.1962C173.939 28.6864 172.421 32.35 172.017 33.3398L172.057 33.368C172.757 32.0672 174.131 29.6573 174.733 29.0037C175.492 28.1805 175.918 29.0037 175.601 29.5662C175.394 29.9432 174.457 32.1709 173.845 33.6508C174.573 32.5794 175.448 31.3571 175.881 30.9581C176.636 30.2606 176.963 31.0398 176.633 31.5362C176.407 31.8756 175.319 33.9807 174.654 35.2721L172.588 39.6364V43.5168L166.87 42.3857L167.522 39.7149L166.218 36.8871C165.556 36.1136 164.856 35.3742 164.12 34.672C163.31 33.9996 163 32.9596 164.361 33.3586Z" fill="#E09483"/>
<path d="M158.136 48.1038L121.291 47.8493C121.291 47.8493 121.692 43.2493 123.922 42.3727C124.826 42.0177 126.892 41.0059 129.034 39.9219C129.831 39.5229 130.637 39.1113 131.399 38.7217L131.638 38.5991L133.375 37.7036C134.523 37.1098 135.345 36.6793 135.501 36.5977H135.527L135.809 36.6605C136.16 36.7422 136.514 36.8145 136.869 36.871C137.223 36.9276 137.571 36.981 137.923 37.0155C139.87 37.2209 141.839 37.0988 143.747 36.6542V36.6542L145.876 37.7665L147.636 38.6777L147.877 38.8002L148.818 39.2904L149.856 39.8214C152.224 41.0279 154.595 42.2093 155.561 42.6052C157.797 43.4944 158.136 48.1038 158.136 48.1038Z" fill="#99A9D2"/>
<path d="M145.886 37.7508C145.409 39.746 143.631 42.778 139.748 42.7529C135.489 42.7215 133.908 39.2558 133.375 37.7036C134.523 37.1098 135.345 36.6793 135.501 36.5977H135.527L135.809 36.6605C136.16 36.7422 136.514 36.8145 136.869 36.871C137.223 36.9276 137.571 36.981 137.923 37.0155C139.87 37.2209 141.839 37.0988 143.747 36.6542V36.6542L145.886 37.7508Z" fill="#FCF6F0"/>
<path d="M143.938 37.571C143.938 37.571 143.201 39.8427 139.88 39.8176C136.006 39.7924 135.109 37.7187 135.109 37.7187C135.418 36.9197 135.665 36.0983 135.85 35.2616V35.2616C136.08 34.2549 136.191 33.2246 136.182 32.1918L142.988 31.9688C143.047 32.5469 143.144 33.2256 143.254 33.9105C143.549 35.7423 143.938 37.571 143.938 37.571Z" fill="#E09483"/>
<path d="M143.254 33.9222C142.194 34.6512 139.883 35.7289 135.85 35.2733C136.08 34.2666 136.191 33.2363 136.182 32.2036L142.988 31.9805C143.047 32.5586 143.145 33.2373 143.254 33.9222Z" fill="#293D48"/>
<path d="M133.644 23.297C133.644 23.297 131.559 20.4126 129.909 22.0998C128.259 23.7871 131.377 29.7287 134.253 28.4593L133.644 23.297Z" fill="#E09483"/>
<path d="M146.472 23.3834C146.472 23.3834 148.598 20.5273 150.236 22.2366C151.873 23.9458 148.667 29.8434 145.807 28.5364L146.472 23.3834Z" fill="#E09483"/>
<path d="M141.463 14.4458C135.463 14.4018 131.712 17.4935 132.337 24.648C132.707 28.9211 134.846 34.2155 139.917 34.3694C145.183 34.5297 147.337 28.7986 148.118 24.4406C148.833 20.4565 146.839 16.0168 143.006 14.7317C142.502 14.5879 141.985 14.4921 141.463 14.4458V14.4458Z" fill="#E09483"/>
<path d="M132.274 23.3428C132.274 23.3428 131.622 16.5591 131.612 15.0572C131.587 11.403 135.282 9.37642 140.683 9.42669C145.036 9.4644 145.559 11.381 145.901 12.9269C145.901 12.9269 149.119 13.0338 149.596 15.2866C150.073 17.5394 147.981 24.3168 147.981 24.3168C147.484 23.0801 147.099 21.8015 146.83 20.4961C146.356 18.2432 145.726 16.8608 144.321 16.823C142.916 16.7853 141.162 16.845 139.259 17.9573C137.355 19.0696 135.464 19.1953 134.137 18.2024C134.14 18.2024 133.761 21.5958 132.274 23.3428Z" fill="#704C3D"/>
<g opacity="0.5">
<path opacity="0.5" d="M137.471 26.2053C137.471 26.7174 136.53 27.1227 135.366 27.1164C134.203 27.1102 133.268 26.6891 133.274 26.1738C133.281 25.6585 134.215 25.2564 135.379 25.2658C136.542 25.2752 137.471 25.6962 137.471 26.2053Z" fill="#E49F68"/>
</g>
<g opacity="0.5">
<path opacity="0.5" d="M147.36 26.274C147.36 26.783 146.419 27.1914 145.252 27.182C144.085 27.1726 143.157 26.7547 143.16 26.2394C143.163 25.7241 144.101 25.3219 145.265 25.3282C146.428 25.3345 147.363 25.7649 147.36 26.274Z" fill="#E49F68"/>
</g>
<path d="M148.166 23.449C148.053 25.9607 147.693 28.455 147.09 30.8956C145.472 37.5379 140.077 36.6141 140.077 36.6141C140.077 36.6141 134.78 37.4656 133.25 30.8014C132.682 28.3529 132.355 25.8545 132.274 23.3422L133.146 21.9062C133.146 21.9062 133.711 27.6436 135.897 28.6491C135.897 28.6491 136.878 27.1723 140.134 28.5831C143.405 27.2194 144.474 28.7088 144.474 28.7088C146.67 27.7316 147.316 22.0005 147.316 22.0005L148.166 23.449Z" fill="#704C3D"/>
<path d="M140.381 28.0196C140.094 28.0089 139.812 27.9394 139.553 27.8154C139.512 27.7974 139.478 27.7665 139.456 27.7274C139.434 27.6883 139.425 27.6431 139.431 27.5986L139.876 24.3591C139.884 24.3046 139.913 24.2552 139.956 24.2219C140 24.1886 140.055 24.1741 140.11 24.1816C140.164 24.1891 140.214 24.218 140.247 24.2619C140.28 24.3058 140.295 24.3611 140.287 24.4157L139.867 27.4949C140.022 27.5732 140.194 27.6113 140.368 27.6058C140.542 27.6003 140.711 27.5514 140.861 27.4635C140.907 27.4331 140.963 27.4221 141.017 27.433C141.07 27.4439 141.118 27.4758 141.148 27.5216C141.178 27.5674 141.189 27.6235 141.178 27.6774C141.168 27.7313 141.136 27.7787 141.09 27.8091C140.88 27.949 140.633 28.0224 140.381 28.0196V28.0196Z" fill="#E49F68"/>
<path d="M139.979 30.535C139.249 30.5277 138.53 30.3514 137.878 30.0197C137.855 30.0063 137.834 29.9883 137.817 29.9669C137.8 29.9454 137.788 29.9208 137.781 29.8946C137.773 29.8683 137.771 29.8409 137.774 29.8138C137.778 29.7868 137.786 29.7606 137.8 29.7369C137.813 29.7132 137.831 29.6923 137.853 29.6755C137.874 29.6587 137.898 29.6464 137.925 29.6391C137.951 29.6318 137.978 29.6297 138.005 29.633C138.032 29.6363 138.058 29.6449 138.082 29.6584C138.182 29.7149 140.472 30.9717 142.473 29.1431C142.514 29.106 142.569 29.087 142.625 29.0902C142.68 29.0934 142.732 29.1187 142.769 29.1603C142.806 29.202 142.825 29.2567 142.822 29.3124C142.819 29.3681 142.794 29.4202 142.752 29.4573C142.003 30.1647 141.008 30.5514 139.979 30.535V30.535Z" fill="#684868"/>
<path d="M140.293 31.7276C139.998 31.7255 139.705 31.6821 139.422 31.5988C139.396 31.5905 139.371 31.5773 139.351 31.5597C139.33 31.5421 139.313 31.5206 139.3 31.4964C139.288 31.4722 139.28 31.4457 139.278 31.4185C139.275 31.3913 139.278 31.364 139.287 31.338C139.304 31.2852 139.341 31.2414 139.391 31.2161C139.44 31.1908 139.497 31.186 139.55 31.2029V31.2029C139.55 31.2029 140.475 31.4919 141.118 31.1275C141.166 31.1008 141.223 31.0944 141.276 31.1097C141.329 31.1251 141.374 31.1608 141.401 31.2092C141.427 31.2575 141.433 31.3144 141.418 31.3675C141.403 31.4205 141.367 31.4653 141.319 31.4919C141.003 31.657 140.65 31.7381 140.293 31.7276Z" fill="#684868"/>
<path d="M135.988 22.4589C136.528 22.1538 137.115 21.9414 137.725 21.8305C137.805 21.8205 137.881 21.7927 137.949 21.7493C138.016 21.7059 138.074 21.6478 138.116 21.5795C138.158 21.5112 138.185 21.4342 138.194 21.3542C138.203 21.2743 138.194 21.1933 138.167 21.1173L138.145 21.0513C138.106 20.9367 138.029 20.8388 137.927 20.7732C137.825 20.7077 137.704 20.6784 137.584 20.69C137.016 20.7465 136.016 20.9382 135.354 21.5886C135.284 21.6577 135.235 21.7447 135.211 21.8399C135.188 21.9352 135.19 22.0352 135.219 22.129C135.242 22.2058 135.281 22.2766 135.334 22.3364C135.387 22.3962 135.453 22.4435 135.526 22.4751C135.599 22.5066 135.679 22.5215 135.759 22.5187C135.838 22.5159 135.917 22.4955 135.988 22.4589V22.4589Z" fill="#293D48"/>
<path d="M144.578 22.5156C144.041 22.2065 143.456 21.9888 142.847 21.8715C142.767 21.8604 142.691 21.8317 142.624 21.7873C142.557 21.743 142.501 21.6841 142.459 21.6152C142.418 21.5462 142.392 21.4688 142.384 21.3887C142.377 21.3086 142.387 21.2277 142.414 21.152L142.439 21.086C142.48 20.972 142.558 20.875 142.66 20.8111C142.763 20.7472 142.884 20.72 143.004 20.7341C143.571 20.7969 144.572 21.0043 145.221 21.6767C145.29 21.7472 145.338 21.835 145.36 21.9307C145.383 22.0264 145.379 22.1265 145.35 22.2203V22.2203C145.323 22.2944 145.281 22.362 145.227 22.4183C145.172 22.4746 145.105 22.5183 145.032 22.5464C144.959 22.5745 144.88 22.5863 144.802 22.581C144.723 22.5756 144.647 22.5534 144.578 22.5156V22.5156Z" fill="#293D48"/>
<path d="M137.644 24.0579C137.644 24.6234 137.44 25.0822 137.173 25.0853C136.907 25.0884 136.687 24.6329 136.681 24.0673C136.675 23.5017 136.885 23.0461 137.151 23.043C137.418 23.0398 137.637 23.4923 137.644 24.0579Z" fill="#293D48"/>
<path d="M142.667 24.0907C142.667 24.6531 142.859 25.115 143.125 25.1213C143.392 25.1276 143.618 24.6782 143.63 24.1158C143.643 23.5534 143.439 23.0884 143.176 23.0821C142.912 23.0758 142.683 23.5283 142.667 24.0907Z" fill="#293D48"/>
<path d="M121.291 47.85L122.963 64.7604L124.06 89.9595H155.282L156.289 63.8084L158.136 48.0982C158.136 48.0982 125.738 45.2201 121.291 47.85Z" fill="#99A9D2"/>
<path d="M118.854 77.1385L116.834 74.5369L125.067 54.3933L123.922 42.375C123.922 42.375 117.891 42.9154 114.683 52.3353C111.474 61.7551 107.585 74.1127 107.585 74.1127C108.567 84.9998 120.698 93.5368 120.698 93.5368L125.24 87.9848L118.854 77.1385Z" fill="#99A9D2"/>
<path d="M173.949 42.3758L165.766 41.7977C165.766 41.7977 165.556 49.4014 165.01 54.7743C162.987 51.0038 160.353 47.689 159.638 46.1965C157.794 42.3475 152.111 40.9336 152.111 40.9336C152.111 40.9336 152.424 51.4531 154.933 57.5078C156.392 61.0112 159.158 65.6771 161.231 68.9605C164.508 74.1763 172.559 72.8818 173.867 66.8554C173.892 66.7266 173.92 66.5946 173.942 66.4626C175.084 60.0277 173.949 42.3758 173.949 42.3758Z" fill="#99A9D2"/>
<path d="M112.305 59C112.305 59 118.763 71.7755 121.319 77.428L115.25 82.3359L104.386 66.3335L112.305 59Z" fill="#CF7559"/>
<path d="M117.06 78.6563L107.476 93.5401L111.415 98.5674C111.415 98.5674 122.392 88.4312 123.019 84.8021C123.646 81.1731 120.94 76.6328 120.94 76.6328L117.06 78.6563Z" fill="#CF7559"/>
<path d="M64.8287 59.3008L58.8228 76.7202L66.3247 79.5795C66.3247 79.5795 75.2788 65.4403 75.4607 63.5551C75.6426 61.6699 73.3531 59.5207 73.3531 59.5207L64.8287 59.3008Z" fill="#B7674E"/>
<path d="M78.2114 35.4862C78.2114 35.4862 76.1226 35.172 75.9438 36.9535C75.7651 38.7351 77.0102 39.021 77.0102 39.021C77.0102 39.021 75.0375 37.0949 73.8457 38.6377C72.6539 40.1804 74.8744 41.2456 74.8744 41.2456C74.8744 41.2456 72.4218 40.1176 72.08 41.7546C71.7381 43.3916 73.714 44.2431 73.714 44.2431C73.714 44.2431 71.6472 44.2431 71.7883 45.148C71.9294 46.0529 73.8551 45.148 73.8551 45.148C73.8551 45.148 71.0011 45.8895 71.6221 48.1455C72.2431 50.4015 74.4447 48.9404 74.4447 48.9404C74.4447 48.9404 72.7606 49.9804 73.4254 52.846C74.0903 55.7115 86.6636 48.9058 86.6636 48.9058L86.35 41.0256L78.2114 35.4862Z" fill="#524143"/>
<path d="M93.2497 34.4076C93.2497 34.4076 95.2725 33.8012 95.7022 35.5324C96.1319 37.2637 94.9432 37.7319 94.9432 37.7319C94.9432 37.7319 96.6211 35.5325 98.0199 36.8961C99.4187 38.2597 97.3738 39.6265 97.3738 39.6265C97.3738 39.6265 99.6413 38.1592 100.212 39.7271C100.783 41.2949 98.9576 42.4261 98.9576 42.4261C98.9576 42.4261 101.002 42.1119 100.993 43.0545C100.984 43.9971 98.9483 43.3687 98.9483 43.3687C98.9483 43.3687 101.881 43.6829 101.586 46.0143C101.291 48.3457 98.9169 47.202 98.9169 47.202C98.9169 47.202 100.733 47.9906 100.485 50.9221C100.237 53.8537 86.7984 48.9175 86.7984 48.9175L86.0049 41.0813L93.2497 34.4076Z" fill="#524143"/>
<path d="M78.2114 35.4862C78.2114 35.4862 76.1226 35.172 75.9438 36.9535C75.7651 38.7351 77.0102 39.021 77.0102 39.021C77.0102 39.021 75.0375 37.0949 73.8457 38.6377C72.6539 40.1804 74.8744 41.2456 74.8744 41.2456C74.8744 41.2456 72.4218 40.1176 72.08 41.7546C71.7381 43.3916 73.714 44.2431 73.714 44.2431C73.714 44.2431 71.6472 44.2431 71.7883 45.148C71.9294 46.0529 73.8551 45.148 73.8551 45.148C73.8551 45.148 71.0011 45.8895 71.6221 48.1455C72.2431 50.4015 74.4447 48.9404 74.4447 48.9404C74.4447 48.9404 72.7606 49.9804 73.4254 52.846C74.0903 55.7115 86.6636 48.9058 86.6636 48.9058L86.35 41.0256L78.2114 35.4862Z" fill="#524143"/>
<path d="M93.2497 34.4076C93.2497 34.4076 95.2725 33.8012 95.7022 35.5324C96.1319 37.2637 94.9432 37.7319 94.9432 37.7319C94.9432 37.7319 96.6211 35.5325 98.0199 36.8961C99.4187 38.2597 97.3738 39.6265 97.3738 39.6265C97.3738 39.6265 99.6413 38.1592 100.212 39.7271C100.783 41.2949 98.9576 42.4261 98.9576 42.4261C98.9576 42.4261 101.002 42.1119 100.993 43.0545C100.984 43.9971 98.9483 43.3687 98.9483 43.3687C98.9483 43.3687 101.881 43.6829 101.586 46.0143C101.291 48.3457 98.9169 47.202 98.9169 47.202C98.9169 47.202 100.733 47.9906 100.485 50.9221C100.237 53.8537 86.7984 48.9175 86.7984 48.9175L86.0049 41.0813L93.2497 34.4076Z" fill="#524143"/>
<path d="M91.3678 47.0357C89.141 46.0177 89.3198 40.3086 89.3198 40.3086L86.1208 40.7453V40.538L85.7852 40.6668L85.4339 40.5882V40.7956L82.2036 40.8207C82.2036 40.8207 83.1978 46.445 81.1341 47.7709C79.0705 49.0969 66.4376 50.5988 68.7427 63.5911L86.9739 62.2777L87.6607 62.2274L105.892 60.9141C106.309 47.7269 93.5882 48.0537 91.3678 47.0357Z" fill="#CF7559"/>
<path d="M82.1309 46.2282C84.6691 45.6626 87.2053 45.0834 89.7394 44.4906C89.4255 43.1196 89.2811 41.715 89.3097 40.3086L86.1108 40.7453V40.538L85.7752 40.6668L85.4239 40.5882V40.7956L82.1936 40.8207C82.1936 40.8207 82.7707 44.0885 82.1309 46.2282Z" fill="#B7674E"/>
<path d="M78.8758 32.7206C78.1012 30.8008 76.6365 31.3633 76.5016 31.423C76.3668 31.4827 74.8237 31.7906 75.2471 33.8172C75.6705 35.8438 76.9376 36.887 78.0321 36.4785C79.1612 36.2146 79.6536 34.6498 78.8758 32.7206Z" fill="#B7674E"/>
<path d="M91.4964 31.8138C91.9888 29.8029 93.5162 30.1485 93.6604 30.1862C93.8047 30.2239 95.3728 30.3119 95.2536 32.3857C95.1345 34.4594 94.018 35.6659 92.8764 35.4177C91.7128 35.3109 91.004 33.8341 91.4964 31.8138Z" fill="#B7674E"/>
<path d="M77.1287 29.8551C77.2918 21.1863 83.8623 21.1957 84.4833 21.2177C85.1106 21.1077 91.5963 20.1557 92.9982 28.7114C94.4096 37.3206 90.9628 43.2559 86.0671 43.2968C81.2184 43.9566 76.9625 38.5774 77.1287 29.8551Z" fill="#CF7559"/>
<path d="M85.6411 33.2578C85.8933 33.6244 86.0938 34.024 86.237 34.4455C86.3806 34.8537 86.4856 35.2745 86.5506 35.7023L86.5694 35.8311L86.5098 35.894C86.3436 36.0668 86.1711 36.2302 85.9923 36.3936C85.8147 36.5585 85.6284 36.7137 85.4341 36.8586C85.5407 36.6355 85.6662 36.4313 85.7916 36.2302C85.9171 36.0291 86.0519 35.828 86.1899 35.6332L86.1492 35.8249C85.9782 35.4193 85.8459 34.9985 85.754 34.568C85.6586 34.1382 85.6206 33.6976 85.6411 33.2578V33.2578Z" fill="#76413B"/>
<path d="M88.031 38.1094C87.0901 39.6647 85.2836 39.6521 83.7876 38.3607Z" fill="white"/>
<path d="M90.7751 30.2782C90.3705 30.1242 90.0098 29.9828 89.6586 29.876C89.3357 29.7672 88.9986 29.7068 88.6581 29.6969C88.3349 29.6875 88.0136 29.7497 87.7172 29.8792C87.5442 29.9424 87.3765 30.0191 87.2154 30.1085C87.0398 30.1965 86.8798 30.3128 86.6729 30.4039C86.7326 30.1951 86.8179 29.9946 86.9269 29.8069C87.0474 29.6183 87.1966 29.4497 87.3691 29.3073C87.7356 28.9972 88.2037 28.8338 88.6832 28.8486C89.1454 28.8612 89.5933 29.0122 89.9691 29.2822C90.327 29.5304 90.6067 29.876 90.7751 30.2782V30.2782Z" fill="#524143"/>
<path d="M83.9282 30.8632C83.5268 30.7093 83.1661 30.5647 82.8148 30.4579C82.4911 30.3527 82.1545 30.2925 81.8144 30.2788C81.4914 30.2714 81.1705 30.3336 80.8735 30.4611C80.7013 30.5262 80.5336 30.6028 80.3717 30.6904C80.1992 30.7784 80.0392 30.8978 79.8291 30.9858C79.89 30.7774 79.9753 30.5771 80.0832 30.3888C80.2058 30.2018 80.3559 30.0344 80.5285 29.8924C80.8935 29.5813 81.3605 29.4168 81.8395 29.4305C82.303 29.4441 82.7518 29.5962 83.1285 29.8672C83.4842 30.1162 83.7617 30.4618 83.9282 30.8632V30.8632Z" fill="#524143"/>
<path d="M82.0654 33.979C82.3841 33.979 82.6424 33.4599 82.6424 32.8196C82.6424 32.1792 82.3841 31.6602 82.0654 31.6602C81.7466 31.6602 81.4883 32.1792 81.4883 32.8196C81.4883 33.4599 81.7466 33.979 82.0654 33.979Z" fill="#524143"/>
<path d="M88.9057 33.5571C89.2244 33.5571 89.4828 33.038 89.4828 32.3977C89.4828 31.7574 89.2244 31.2383 88.9057 31.2383C88.587 31.2383 88.3286 31.7574 88.3286 32.3977C88.3286 33.038 88.587 33.5571 88.9057 33.5571Z" fill="#524143"/>
<path d="M84.7376 21.2004C84.7376 21.2004 85.5217 26.4507 77.6873 29.2377C77.9273 30.9714 77.8987 32.7317 77.6026 34.4567C77.6026 34.4567 74.7455 30.9062 75.6456 26.3973C76.5457 21.8885 82.4639 17.8981 84.7376 21.2004Z" fill="#524143"/>
<path d="M84.1069 21.2486C84.1069 21.2486 84.3359 26.5366 92.487 28.1611C92.487 28.1611 92.3491 31.545 93.2147 34.0115C93.2147 34.0115 95.6358 29.3928 94.1022 25.0567C92.5686 20.7207 85.8883 17.651 84.1069 21.2486Z" fill="#524143"/>
<path d="M78.8666 28.7731C77.6436 28.0564 76.5821 27.0935 75.7491 25.9453C75.7115 26.093 75.6738 26.2375 75.6456 26.3852C74.7455 30.894 77.6026 34.4445 77.6026 34.4445C77.8987 32.7196 77.9273 30.9592 77.6873 29.2256C78.1044 29.0873 78.509 28.9334 78.8666 28.7731Z" fill="#524143"/>
<path d="M108.68 91.8557L103.464 75.3066L106.415 60.8784C106.87 47.4996 93.7542 47.8453 91.4553 46.8147C90.5709 46.4188 90.0565 45.3159 89.7586 44.1094C87.3061 44.8304 84.7286 45.0211 82.197 44.6687C82.0716 45.9003 81.7172 47.0566 80.9017 47.575C78.7754 48.923 65.7442 50.4594 68.1058 63.6371L73.4688 76.177C73.4688 76.177 69.7053 84.8867 69.7053 91.8557H108.68Z" fill="#659AE9"/>
<path d="M75.1685 49.8242C75.1685 49.8242 70.4641 51.2319 66.9766 54.7635C63.4891 58.2951 62.0244 63.5801 62.0244 63.5801L72.3334 68.3245L75.1685 49.8242Z" fill="#659AE9"/>
<path d="M98.8477 48.7148C98.8477 48.7148 103.693 49.5066 107.601 52.5638C111.509 55.621 113.635 60.6766 113.635 60.6766L104.019 66.6999L98.8477 48.7148Z" fill="#659AE9"/>
<path d="M66.591 74.5195L55.6517 53.3359L49.6489 55.0578C49.6489 55.0578 55.4541 75.4402 56.9282 78.3088C59.7508 83.8388 69.605 81.6865 66.591 74.5195Z" fill="#CF7559"/>
<path d="M57.1826 44.9128C56.4079 45.3841 55.2381 46.4839 54.2972 47.4265L51.7631 44.6395C51.6282 44.4824 51.3397 44.165 50.9634 43.7629C49.7089 42.4181 47.4225 40.1118 46.5287 39.5431C45.3714 38.8047 45.1236 39.9076 45.6756 40.4857C46.1022 40.9287 48.4982 44.0613 49.574 45.4721L49.5238 45.535C48.3885 44.3001 45.7195 41.5571 44.7348 40.9319C43.5775 40.1935 43.3297 41.2964 43.8817 41.8745C44.3584 42.3741 47.3096 46.2419 48.1031 47.2882L48.0655 47.3353C46.8298 46.0094 44.443 43.5649 43.5241 42.9962C42.3637 42.2578 42.1159 43.3607 42.6679 43.9388C43.0349 44.3159 44.8445 46.6661 46.0331 48.2214C44.8319 47.1782 43.4112 46.0031 42.7683 45.6638C41.6549 45.0762 41.5138 46.1037 42.0564 46.5875C42.4327 46.9206 44.3835 49.076 45.5752 50.402L49.3984 54.9296L50.6529 57.968L56.5867 55.5266L55.6458 53.3272L56.1162 49.6699C56.6839 48.5419 57.4774 47.0086 57.9102 46.3802C58.6252 45.3433 58.666 44.0142 57.1826 44.9128Z" fill="#CF7559"/>
<path d="M47.0115 49.7387C47.0373 49.7277 47.0599 49.7104 47.0774 49.6885L50.8221 45.0445C50.8401 45.0271 50.8541 45.0061 50.8633 44.9828C50.8725 44.9595 50.8766 44.9345 50.8753 44.9095C50.8741 44.8844 50.8676 44.86 50.8561 44.8377C50.8447 44.8154 50.8287 44.7958 50.8091 44.7803C50.7895 44.7647 50.7668 44.7535 50.7425 44.7474C50.7183 44.7414 50.693 44.7405 50.6684 44.745C50.6438 44.7495 50.6205 44.7592 50.5999 44.7735C50.5794 44.7878 50.5621 44.8063 50.5492 44.8277L46.8077 49.4685C46.7846 49.4991 46.772 49.5364 46.772 49.5747C46.7719 49.6131 46.7844 49.6504 46.8075 49.681C46.8306 49.7115 46.863 49.7337 46.8998 49.7442C46.9367 49.7546 46.9759 49.7527 47.0115 49.7387V49.7387Z" fill="#76413B"/>
<path d="M52.8763 50.7886C52.9117 50.7737 52.9411 50.7473 52.9599 50.7138C52.9786 50.6802 52.9856 50.6413 52.9798 50.6033C52.776 49.1611 53.7795 47.9797 53.7921 47.9671C53.8166 47.9315 53.8271 47.8881 53.8216 47.8452C53.8162 47.8023 53.7952 47.7629 53.7626 47.7345C53.73 47.7062 53.6882 47.6908 53.645 47.6914C53.6019 47.692 53.5605 47.7085 53.5287 47.7377C53.4816 47.7911 52.409 49.0479 52.638 50.6535C52.6411 50.676 52.6485 50.6977 52.66 50.7173C52.6714 50.7369 52.6866 50.754 52.7047 50.7677C52.7227 50.7814 52.7433 50.7915 52.7652 50.7972C52.7871 50.8029 52.81 50.8043 52.8324 50.8012L52.8763 50.7886Z" fill="#76413B"/>
</g>
</g>
<defs>
<clipPath id="clip0_4575_81131">
<rect width="220" height="80" fill="white"/>
</clipPath>
</defs>
</svg>
