<svg width="20" height="20" viewBox="0 0 20 20" fill="none" xmlns="http://www.w3.org/2000/svg">
<circle cx="10.0007" cy="9.99992" r="8.33333" transform="rotate(180 10.0007 9.99992)" fill="#5B8DE6"/>
<path d="M10.1368 4.60455C8.83699 4.60697 7.58301 5.08516 6.6116 5.94886C5.6402 6.81255 5.01858 8.002 4.86411 9.29263H3.98932C3.89522 9.29259 3.80324 9.32047 3.725 9.37275C3.64675 9.42503 3.58578 9.49934 3.5498 9.58629C3.51382 9.67324 3.50445 9.76893 3.52288 9.86121C3.5413 9.95349 3.58669 10.0382 3.6533 10.1047L4.96378 11.4152C5.05293 11.5042 5.17379 11.5542 5.29981 11.5542C5.42582 11.5542 5.54668 11.5042 5.63583 11.4152L6.94631 10.1047C7.01293 10.0382 7.05832 9.95349 7.07675 9.86121C7.09518 9.76893 7.08579 9.67324 7.04982 9.58629C7.01384 9.49934 6.95288 9.42503 6.87463 9.37275C6.79639 9.32047 6.70439 9.29259 6.61029 9.29263H5.82624C5.96849 8.32268 6.4339 7.42911 7.14713 6.75654C7.86036 6.08397 8.77966 5.67177 9.75629 5.58663C10.7329 5.50149 11.7097 5.74842 12.5285 6.28743C13.3474 6.82644 13.9604 7.62599 14.2683 8.55669C14.5762 9.4874 14.5611 10.4948 14.2254 11.4158C13.8896 12.3368 13.2528 13.1176 12.4182 13.6318C11.5835 14.1459 10.5997 14.3634 9.62612 14.249C8.6525 14.1345 7.74598 13.6949 7.05328 13.0012C7.00972 12.9546 6.95723 12.9173 6.89894 12.8914C6.84065 12.8655 6.77774 12.8517 6.71398 12.8506C6.65021 12.8495 6.58689 12.8613 6.52777 12.8852C6.46865 12.9091 6.41495 12.9447 6.36985 12.9898C6.32476 13.0349 6.28919 13.0886 6.26527 13.1477C6.24136 13.2068 6.22958 13.2702 6.23065 13.3339C6.23171 13.3977 6.24559 13.4606 6.27146 13.5189C6.29733 13.5772 6.33466 13.6296 6.38123 13.6732C6.99901 14.2909 7.75958 14.7468 8.59559 15.0003C9.4316 15.2539 10.3172 15.2973 11.1741 15.1269C12.0309 14.9564 12.8325 14.5773 13.5078 14.0231C14.1831 13.4689 14.7113 12.7567 15.0456 11.9496C15.38 11.1424 15.5101 10.2653 15.4245 9.39593C15.3389 8.52652 15.0402 7.69166 14.5549 6.96525C14.0695 6.23885 13.4126 5.64331 12.6421 5.23145C11.8717 4.81958 11.0116 4.60407 10.138 4.604L10.1368 4.60455Z" fill="white"/>
<path d="M10.0478 7.45232C9.98529 7.45225 9.92335 7.46452 9.86556 7.48842C9.80777 7.51232 9.75528 7.54736 9.71106 7.59158C9.66684 7.6358 9.63178 7.6883 9.60788 7.74608C9.58399 7.80387 9.57173 7.86581 9.5718 7.92834V9.91759C9.57173 9.98003 9.584 10.0419 9.60793 10.0995C9.63187 10.1572 9.66699 10.2096 9.71125 10.2536L11.1438 11.6862C11.1874 11.7328 11.2399 11.7701 11.2982 11.796C11.3564 11.8219 11.4194 11.8357 11.4831 11.8368C11.5469 11.8379 11.6102 11.8261 11.6693 11.8022C11.7285 11.7783 11.7822 11.7427 11.8273 11.6976C11.8724 11.6525 11.9079 11.5988 11.9318 11.5397C11.9557 11.4805 11.9675 11.4172 11.9664 11.3535C11.9654 11.2897 11.9515 11.2268 11.9256 11.1685C11.8998 11.1102 11.8624 11.0577 11.8159 11.0141L10.5227 9.72046V7.92834C10.5229 7.86588 10.5107 7.804 10.4869 7.74625C10.4631 7.68851 10.4281 7.63604 10.384 7.59182C10.3399 7.5476 10.2875 7.51253 10.2298 7.48859C10.1721 7.46466 10.1103 7.45232 10.0478 7.45232Z" fill="white"/>
</svg>
