<svg width="32" height="32" viewBox="0 0 32 32" fill="none" xmlns="http://www.w3.org/2000/svg">
<path d="M29.3333 16.0001C29.3333 23.364 23.3638 29.3336 16 29.3336C8.63616 29.3336 2.66663 23.364 2.66663 16.0001C2.66663 8.63628 8.63616 2.66675 16 2.66675C23.3638 2.66675 29.3333 8.63628 29.3333 16.0001" fill="#FAFBFD"/>
<path fill-rule="evenodd" clip-rule="evenodd" d="M16.0211 16.8263C18.6279 16.8263 20.794 16.3855 21.3356 15.7936C20.8822 15.2898 19.2576 14.8995 17.1797 14.7987V16.0454C16.8145 16.0707 16.4241 16.0707 16.0211 16.0707C15.618 16.0707 15.2402 16.058 14.8624 16.0329V14.7987C12.7845 14.912 11.1599 15.3024 10.7065 15.7936C11.2355 16.3855 13.4142 16.8263 16.0211 16.8263ZM20.6429 10.9702V12.683H17.1671V13.8668C19.6102 13.9927 21.4363 14.509 21.4489 15.1387V16.4359C21.4363 17.0655 19.6102 17.5818 17.1671 17.7078V20.6169H14.8624V17.7204C12.4193 17.5945 10.5932 17.0781 10.5806 16.4485V15.1387C10.5932 14.509 12.4193 13.9927 14.8624 13.8668V12.683H11.3866V10.9702H20.6429ZM10.0265 8.25H22.2171C22.5068 8.25 22.7713 8.40112 22.9224 8.653L26.4737 14.7483C26.6626 15.0631 26.5997 15.4662 26.3352 15.718L16.5626 25.264C16.2478 25.5788 15.7314 25.5788 15.4166 25.264L5.6565 15.7306C5.39204 15.4662 5.34166 15.0631 5.53057 14.7357L9.33384 8.62781C9.48496 8.40112 9.74942 8.25 10.0265 8.25Z" fill="#D3B25B"/>
</svg>
