<svg width="24" height="24" viewBox="0 0 24 24" fill="none" xmlns="http://www.w3.org/2000/svg">
<path d="M17.4 3.6C17.4 3.26863 17.6686 3 18 3H20.4C20.7314 3 21 3.26863 21 3.6V6C21 6.33137 20.7314 6.6 20.4 6.6H18C17.6686 6.6 17.4 6.33137 17.4 6V3.6Z" fill="white"/>
<path d="M10.2 3.6C10.2 3.26863 10.4686 3 10.8 3H13.2C13.5314 3 13.8 3.26863 13.8 3.6V6C13.8 6.33137 13.5314 6.6 13.2 6.6H10.8C10.4686 6.6 10.2 6.33137 10.2 6V3.6Z" fill="white"/>
<path d="M3 3.6C3 3.26863 3.26863 3 3.6 3H6C6.33137 3 6.6 3.26863 6.6 3.6V6C6.6 6.33137 6.33137 6.6 6 6.6H3.6C3.26863 6.6 3 6.33137 3 6V3.6Z" fill="white"/>
<path d="M17.4 10.8C17.4 10.4686 17.6686 10.2 18 10.2H20.4C20.7314 10.2 21 10.4686 21 10.8V13.2C21 13.5314 20.7314 13.8 20.4 13.8H18C17.6686 13.8 17.4 13.5314 17.4 13.2V10.8Z" fill="white"/>
<path d="M10.2 10.8C10.2 10.4686 10.4686 10.2 10.8 10.2H13.2C13.5314 10.2 13.8 10.4686 13.8 10.8V13.2C13.8 13.5314 13.5314 13.8 13.2 13.8H10.8C10.4686 13.8 10.2 13.5314 10.2 13.2V10.8Z" fill="white"/>
<path d="M3 10.8C3 10.4686 3.26863 10.2 3.6 10.2H6C6.33137 10.2 6.6 10.4686 6.6 10.8V13.2C6.6 13.5314 6.33137 13.8 6 13.8H3.6C3.26863 13.8 3 13.5314 3 13.2V10.8Z" fill="white"/>
<path d="M17.4 18C17.4 17.6686 17.6686 17.4 18 17.4H20.4C20.7314 17.4 21 17.6686 21 18V20.4C21 20.7314 20.7314 21 20.4 21H18C17.6686 21 17.4 20.7314 17.4 20.4V18Z" fill="white"/>
<path d="M10.2 18C10.2 17.6686 10.4686 17.4 10.8 17.4H13.2C13.5314 17.4 13.8 17.6686 13.8 18V20.4C13.8 20.7314 13.5314 21 13.2 21H10.8C10.4686 21 10.2 20.7314 10.2 20.4V18Z" fill="white"/>
<path d="M3 18C3 17.6686 3.26863 17.4 3.6 17.4H6C6.33137 17.4 6.6 17.6686 6.6 18V20.4C6.6 20.7314 6.33137 21 6 21H3.6C3.26863 21 3 20.7314 3 20.4V18Z" fill="white"/>
</svg>
