<svg width="32" height="32" viewBox="0 0 32 32" fill="none" xmlns="http://www.w3.org/2000/svg">
<path d="M25.8336 12.2286C24.5418 7.46377 20.6278 4 16 4C11.3722 4 7.45822 7.46377 6.16637 12.2286H5.37143C4.61401 12.2286 4 12.8426 4 13.6V19.0857C4 19.8431 4.61401 20.4571 5.37143 20.4571H7.77143C8.52885 20.4571 9.14286 19.8431 9.14286 19.0857V13.6C9.14286 12.8426 8.52885 12.2286 7.77143 12.2286H7.44142C8.68731 8.23363 12.049 5.37143 16.0006 5.37143C19.9522 5.37143 23.3139 8.23363 24.5598 12.2286H24.2286C23.4712 12.2286 22.8571 12.8426 22.8571 13.6V19.0857C22.8571 19.7777 23.3696 20.35 24.0357 20.4437C22.861 22.9713 20.785 24.8772 18.2922 25.6122C18.0488 25.3916 17.7258 25.2571 17.3714 25.2571H14.6286C13.8712 25.2571 13.2571 25.8712 13.2571 26.6286C13.2571 27.386 13.8712 28 14.6286 28H17.3714C18.0346 28 18.5878 27.5293 18.7152 26.9038C21.6888 25.9839 24.1256 23.5896 25.376 20.4571H26.6286C27.386 20.4571 28 19.8431 28 19.0857V13.6C28 12.8426 27.386 12.2286 26.6286 12.2286H25.8336Z" fill="white"/>
<path d="M20.5714 15.0909C20.5714 17.5762 17.6842 20 15.9192 20C14.3158 20 11.4286 17.5762 11.4286 15.0909C11.4286 12.6056 11.7481 11 15.9192 11C20.0902 11 20.5714 12.6056 20.5714 15.0909Z" fill="white"/>
</svg>
