<svg width="20" height="20" viewBox="0 0 20 20" fill="none" xmlns="http://www.w3.org/2000/svg">
<path fill-rule="evenodd" clip-rule="evenodd" d="M8.47207 1.75488H11.5279C12.5502 1.75488 13.3632 1.75487 14.0192 1.80846C14.6909 1.86334 15.2636 1.97814 15.7881 2.24535C16.6348 2.67678 17.3232 3.3652 17.7546 4.21193C18.0219 4.73636 18.1367 5.30912 18.1915 5.98082C18.2451 6.63676 18.2451 7.44978 18.2451 8.47206V11.5279C18.2451 12.5502 18.2451 13.3632 18.1915 14.0192C18.1367 14.6909 18.0219 15.2636 17.7546 15.7881C17.3232 16.6348 16.6348 17.3232 15.7881 17.7546C15.2636 18.0219 14.6909 18.1367 14.0192 18.1915C13.3632 18.2451 12.5502 18.2451 11.5279 18.2451H8.47206C7.44978 18.2451 6.63676 18.2451 5.98082 18.1915C5.30912 18.1367 4.73636 18.0219 4.21193 17.7546C3.3652 17.3232 2.67678 16.6348 2.24535 15.7881C1.97814 15.2636 1.86334 14.6909 1.80846 14.0192C1.75487 13.3632 1.75488 12.5502 1.75488 11.5279V8.47207C1.75488 7.44978 1.75487 6.63676 1.80846 5.98082C1.86334 5.30912 1.97814 4.73636 2.24535 4.21193C2.67678 3.3652 3.3652 2.67678 4.21193 2.24535C4.73636 1.97814 5.30912 1.86334 5.98082 1.80846C6.63676 1.75487 7.44978 1.75488 8.47207 1.75488ZM6.10296 3.30348C5.52402 3.35078 5.17065 3.44035 4.89291 3.58186C4.32843 3.86948 3.86948 4.32843 3.58186 4.89291C3.44035 5.17065 3.35078 5.52402 3.30348 6.10296C3.25547 6.69066 3.25488 7.44241 3.25488 8.50488V11.4951C3.25488 12.5576 3.25547 13.3093 3.30348 13.897C3.35078 14.476 3.44035 14.8294 3.58186 15.1071C3.86948 15.6716 4.32843 16.1305 4.89291 16.4181C5.17065 16.5596 5.52402 16.6492 6.10296 16.6965C6.69066 16.7445 7.44241 16.7451 8.50488 16.7451H11.4951C12.5576 16.7451 13.3093 16.7445 13.897 16.6965C14.476 16.6492 14.8294 16.5596 15.1071 16.4181C15.6716 16.1305 16.1305 15.6716 16.4181 15.1071C16.5596 14.8294 16.6492 14.476 16.6965 13.897C16.7445 13.3093 16.7451 12.5576 16.7451 11.4951V8.50488C16.7451 7.44241 16.7445 6.69066 16.6965 6.10296C16.6492 5.52402 16.5596 5.17065 16.4181 4.89291C16.1305 4.32843 15.6716 3.86948 15.1071 3.58186C14.8294 3.44035 14.476 3.35078 13.897 3.30348C13.3093 3.25547 12.5576 3.25488 11.4951 3.25488H8.50488C7.44241 3.25488 6.69066 3.25547 6.10296 3.30348Z" fill="#58595A"/>
<path fill-rule="evenodd" clip-rule="evenodd" d="M10.6019 10.2147L13.6559 6.82922L14.7697 7.83395L10.6019 12.4541L8.79641 10.4527L6.34422 13.1711L5.23043 12.1663L8.79641 8.2133L10.6019 10.2147Z" fill="#58595A"/>
</svg>
