<svg width="20" height="20" viewBox="0 0 20 20" fill="none" xmlns="http://www.w3.org/2000/svg">
<path d="M10 2.5C9.39516 2.5 8.81452 2.57258 8.25806 2.70565C6.43145 3.14113 4.85887 4.24194 3.83065 5.74194C2.99597 6.95161 2.5 8.41532 2.5 10C2.5 14.1371 5.8629 17.5 10 17.5C14.1371 17.5 17.5 14.1371 17.5 10C17.5 5.8629 14.1371 2.5 10 2.5ZM13.0968 15.0202C13.0363 15.504 12.3469 15.746 12.2017 15.2258C11.9476 14.2702 11.2703 14.5483 11.2945 13.6532C11.3187 12.9757 9.92754 13.5081 9.56464 12.9637C9.20173 12.4315 10.2058 11.9113 9.66141 11.246C9.11706 10.5806 8.02823 11.5 6.72177 11.0524C6.14113 10.8468 5.58468 10.3749 5.19758 9.90323C4.67742 9.27419 4.49597 8.52419 4.27823 7.75C4.25403 7.67742 4.24194 7.59274 4.21774 7.52016C4.88306 5.98387 6.12903 4.7621 7.68952 4.14516C7.97984 4.54435 8.91129 4.35081 9.50403 4.41129C9.80645 4.43548 10.0242 4.53226 10.0363 4.79839C10.0363 4.84677 10.0242 4.91935 10 4.99194C9.81855 5.4879 9.14113 6.35887 9.56452 6.68548C9.87903 6.92742 10.0968 6.46774 10.2782 7.15726C10.3629 7.47177 10.3992 8.125 10.0485 8.35484C9.70968 8.57258 8.8629 7.70161 7.82258 8.18548C7.25403 8.46371 7.16935 9.77016 7.95564 9.84274C8.41532 9.87903 8.77823 8.97177 9.21371 9.40726C9.56452 9.75806 9.86693 10.7137 10.6895 10.75C11.4153 10.7863 12.8065 10.3387 13.7258 11.6089C14.2702 12.3831 13.2661 13 13.0847 13.738C12.9274 14.3427 13.1452 14.6573 13.0968 15.0202Z" fill="white"/>
</svg>
