<svg width="20" height="20" viewBox="0 0 20 20" fill="none" xmlns="http://www.w3.org/2000/svg">
<path d="M9.25462 13.6588C9.43459 13.8489 9.66977 13.9439 9.90496 13.9439C10.1401 13.9439 10.3753 13.8489 10.5553 13.6588L13.674 10.3641C14.034 9.98383 14.034 9.36809 13.674 8.99001C13.3141 8.61193 12.7313 8.60977 12.3734 8.99001L10.8252 10.6255L10.8252 3.47221C10.8252 2.93425 10.4142 2.5 9.90496 2.5C9.39573 2.5 8.98467 2.93425 8.98467 3.47221V10.6233L7.43654 8.99001C7.07661 8.60977 6.49376 8.60977 6.13587 8.99001C5.77594 9.37026 5.77594 9.98599 6.13587 10.3641L9.25462 13.6588Z" fill="white"/>
<path d="M16.3343 15.7005L3.47556 15.7005C2.93575 15.7005 2.5 16.1024 2.5 16.6003C2.5 17.0981 2.93575 17.5 3.47556 17.5H16.3343C16.8741 17.5 17.3098 17.0981 17.3098 16.6003C17.3098 16.1024 16.8741 15.7005 16.3343 15.7005Z" fill="white"/>
</svg>
