<svg width="20" height="20" viewBox="0 0 20 20" fill="none" xmlns="http://www.w3.org/2000/svg">
<circle cx="9.99935" cy="9.99984" r="8.33333" fill="white"/>
<path d="M10.001 1.66699C14.6033 1.66699 18.334 5.39763 18.334 10C18.334 14.6024 14.6033 18.333 10.001 18.333C5.3986 18.333 1.66797 14.6024 1.66797 10C1.66797 5.39763 5.3986 1.66699 10.001 1.66699ZM14.0674 6.66016C13.9302 6.6598 13.7981 6.71349 13.7012 6.81055L8.37891 12.2803L6.30078 10.2002C6.20405 10.1035 6.07234 10.0497 5.93555 10.0498C5.79883 10.05 5.66776 10.1043 5.57129 10.2012L5.21387 10.5605C5.01382 10.7617 5.01445 11.0863 5.21484 11.2871L8.01367 14.0937C8.11029 14.1906 8.24211 14.2451 8.37891 14.2451C8.51555 14.2451 8.64658 14.1904 8.74316 14.0937L14.7881 7.90039C14.9878 7.70016 14.9886 7.37617 14.79 7.1748L14.4326 6.8125C14.3362 6.71493 14.2045 6.66055 14.0674 6.66016Z" fill="#5AC47D"/>
</svg>
