<svg width="20" height="20" viewBox="0 0 20 20" fill="none" xmlns="http://www.w3.org/2000/svg">
<path d="M14.4608 17.15L14.3541 17.0269C14.3889 17.0674 14.4245 17.1085 14.4608 17.15Z" fill="#FCD536"/>
<path fill-rule="evenodd" clip-rule="evenodd" d="M11.231 2.5H7.93577C5.39773 2.5 3.33337 4.64356 3.33337 7.27898V10.4742C3.33337 13.1096 5.39773 15.2532 7.93577 15.2532H10.876C12.6848 15.2532 13.07 15.4782 13.9168 16.5047L13.9239 16.5132C14.0534 16.6701 14.1964 16.8434 14.3541 17.0269C14.6182 17.3188 14.8124 17.5 15.1976 17.5C15.5829 17.5 15.7946 17.2016 15.8297 16.8116L15.8334 16.8103V7.27898C15.8334 4.64356 13.769 2.5 11.231 2.5ZM7.97675 5.9894C8.33174 5.60284 8.87514 5.33595 9.62584 5.33595C10.5282 5.33595 11.0691 5.68484 11.3696 6.14032C11.6558 6.57424 11.6896 7.05429 11.6896 7.26994C11.6896 7.72222 11.5074 8.0994 11.2709 8.40863C11.0371 8.71428 10.7361 8.97187 10.4691 9.18813L10.465 9.19146C10.2842 9.33277 10.2062 9.43694 10.1719 9.50079C10.1415 9.55739 10.139 9.59363 10.139 9.62422V9.92106C10.139 10.2859 9.84094 10.5551 9.51136 10.5551C9.18178 10.5551 8.88374 10.2859 8.88374 9.92106V9.62422C8.88374 9.07218 9.17678 8.6004 9.67835 8.19675L9.67959 8.19575C9.89791 8.02192 10.0911 7.85749 10.2299 7.69022C10.3689 7.52265 10.424 7.38686 10.424 7.26994C10.424 6.99507 10.3526 6.85231 10.2596 6.76933C10.157 6.67775 9.96742 6.604 9.62584 6.604C9.12397 6.604 8.92548 6.79527 8.83688 6.93424C8.73994 7.0863 8.73407 7.2413 8.73407 7.2413L8.73405 7.24007V7.46443C8.73405 7.82931 8.43601 8.09845 8.10643 8.09845C7.77686 8.09845 7.47881 7.82931 7.47881 7.46443V7.23924C7.47881 6.84475 7.62853 6.36861 7.97675 5.9894ZM8.77466 12.0625C8.77466 11.5975 9.15291 11.2495 9.58424 11.2495C10.0156 11.2495 10.3938 11.5975 10.3938 12.0625C10.3938 12.5275 10.0156 12.8755 9.58424 12.8755C9.15291 12.8755 8.77466 12.5275 8.77466 12.0625Z" fill="#FCD536"/>
</svg>
