<svg width="20" height="20" viewBox="0 0 20 20" fill="none" xmlns="http://www.w3.org/2000/svg">
<path d="M4.57237 9.90689V12.7995C4.57237 13.3997 5.05724 13.8842 5.65789 13.8842C6.25855 13.8842 6.74342 13.3997 6.74342 12.7995V9.90689C6.74342 9.30668 6.25855 8.82216 5.65789 8.82216C5.05724 8.82216 4.57237 9.30668 4.57237 9.90689ZM8.91447 9.90689V12.7995C8.91447 13.3997 9.39934 13.8842 10 13.8842C10.6007 13.8842 11.0855 13.3997 11.0855 12.7995V9.90689C11.0855 9.30668 10.6007 8.82216 10 8.82216C9.39934 8.82216 8.91447 9.30668 8.91447 9.90689ZM4.21053 17.5H15.7895C16.3901 17.5 16.875 17.0155 16.875 16.4153C16.875 15.8151 16.3901 15.3305 15.7895 15.3305H4.21053C3.60987 15.3305 3.125 15.8151 3.125 16.4153C3.125 17.0155 3.60987 17.5 4.21053 17.5ZM13.2566 9.90689V12.7995C13.2566 13.3997 13.7414 13.8842 14.3421 13.8842C14.9428 13.8842 15.4276 13.3997 15.4276 12.7995V9.90689C15.4276 9.30668 14.9428 8.82216 14.3421 8.82216C13.7414 8.82216 13.2566 9.30668 13.2566 9.90689ZM9.32697 2.66813L3.60987 5.67645C3.31316 5.82831 3.125 6.13927 3.125 6.47192C3.125 6.97089 3.53026 7.37586 4.02961 7.37586H15.9776C16.4697 7.37586 16.875 6.97089 16.875 6.47192C16.875 6.13927 16.6868 5.82831 16.3901 5.67645L10.673 2.66813C10.2533 2.44396 9.74671 2.44396 9.32697 2.66813Z" fill="white"/>
</svg>
