<svg width="32" height="32" viewBox="0 0 32 32" fill="none" xmlns="http://www.w3.org/2000/svg">
<path d="M16 29.3334C23.3638 29.3334 29.3333 23.3638 29.3333 16C29.3333 8.63622 23.3638 2.66669 16 2.66669C8.63616 2.66669 2.66663 8.63622 2.66663 16C2.66663 23.3638 8.63616 29.3334 16 29.3334Z" fill="#0184FF"/>
<path d="M16 6V13.3932L22.664 16.1855L16 6Z" fill="white" fill-opacity="0.602"/>
<path d="M15.9983 6L9.33337 16.1855L15.9983 13.3932V6Z" fill="white"/>
<path d="M16 20.9773V26.0008L22.6684 17.3499L16 20.9773Z" fill="white" fill-opacity="0.602"/>
<path d="M15.9983 26.0003V20.9759L9.33337 17.3493L15.9983 26.0003Z" fill="white"/>
<path d="M16 19.8147L22.664 16.1864L16 13.3958V19.8147Z" fill="white" fill-opacity="0.2"/>
<path d="M9.33337 16.1854L15.9983 19.8136V13.3948L9.33337 16.1854Z" fill="white" fill-opacity="0.602"/>
</svg>
