<svg width="24" height="24" viewBox="0 0 24 24" fill="none" xmlns="http://www.w3.org/2000/svg">
<path d="M11.6002 17.91L7.98637 19.8966C7.56643 20.1275 7.04703 19.9587 6.82626 19.5196C6.73835 19.3447 6.70801 19.1444 6.73995 18.9497L7.43013 14.7419C7.47792 14.4505 7.38553 14.1532 7.18307 13.9468L4.25942 10.9668C3.91968 10.6205 3.91273 10.0518 4.24389 9.69656C4.37576 9.5551 4.54855 9.46304 4.73551 9.43463L8.77589 8.82072C9.05569 8.7782 9.29757 8.59445 9.4227 8.32933L11.2296 4.50093C11.4396 4.05606 11.9547 3.8734 12.3801 4.09296C12.5495 4.18039 12.6867 4.32378 12.7703 4.50093L14.5772 8.32933C14.7023 8.59445 14.9442 8.7782 15.224 8.82072L19.2644 9.43463C19.7339 9.50597 20.0592 9.96179 19.991 10.4527C19.9638 10.6482 19.8758 10.8289 19.7405 10.9668L16.8168 13.9468C16.6144 14.1532 16.522 14.4505 16.5698 14.7419L17.2599 18.9497C17.3401 19.4387 17.0261 19.903 16.5585 19.9869C16.3723 20.0203 16.1807 19.9886 16.0135 19.8966L12.3997 17.91C12.1494 17.7724 11.8505 17.7724 11.6002 17.91Z" fill="#FCD536"/>
</svg>
