<svg width="20" height="20" viewBox="0 0 20 20" fill="none" xmlns="http://www.w3.org/2000/svg">
<path fill-rule="evenodd" clip-rule="evenodd" d="M16.6786 12.5202L15.6142 14.2766C15.5211 14.4421 15.3348 14.5312 15.1486 14.5312C15.0687 14.5312 14.9756 14.5057 14.8958 14.4675L14.1374 14.073C14.0177 14.0093 13.858 13.9839 13.6984 13.9839C13.5254 13.9839 13.3657 14.0221 13.2327 14.0857L12.0619 14.7348C11.8091 14.8748 11.6095 15.2057 11.5962 15.473L11.5696 16.3003C11.5563 16.5676 11.3301 16.7967 11.0374 16.7967H8.92198C8.62928 16.7967 8.38979 16.5804 8.38979 16.3003L8.36318 15.473C8.34988 15.2057 8.15031 14.8621 7.89752 14.7348L6.72671 14.0857C6.59366 14.0093 6.43401 13.9839 6.26105 13.9839C6.10139 13.9839 5.94174 14.0093 5.82199 14.073L5.06363 14.4675C5.01041 14.5057 4.91728 14.5312 4.83745 14.5312C4.65118 14.5312 4.46492 14.4421 4.37179 14.2766L3.30741 12.5202C3.16106 12.2783 3.24089 11.9729 3.49368 11.8329L4.22543 11.4001C4.46492 11.2601 4.66449 10.9165 4.66449 10.6492V9.35094C4.66449 9.08365 4.46492 8.74 4.22543 8.59999L3.49368 8.16725C3.25419 8.02724 3.17437 7.72177 3.30741 7.47994L4.37179 5.7235C4.46492 5.55804 4.65118 5.46894 4.83745 5.46894C4.91728 5.46894 5.01041 5.4944 5.09024 5.53258L5.8486 5.92715C5.96834 5.99079 6.128 6.01624 6.28766 6.01624C6.46062 6.01624 6.62027 5.97806 6.75332 5.91442L7.92413 5.2653C8.17692 5.12529 8.37649 4.79437 8.38979 4.52708L8.4164 3.69977C8.42971 3.43249 8.65589 3.20339 8.94859 3.20339H11.064C11.3567 3.20339 11.5962 3.41976 11.5962 3.69977L11.6228 4.52708C11.6361 4.79437 11.8357 5.13802 12.0885 5.2653L13.2593 5.91442C13.3923 5.99079 13.552 6.01624 13.725 6.01624C13.8846 6.01624 14.0443 5.99079 14.164 5.92715L14.9224 5.53258C15.0022 5.4944 15.082 5.46894 15.1752 5.46894C15.3614 5.46894 15.5477 5.55804 15.6408 5.7235L16.6919 7.47994C16.8383 7.72177 16.7584 8.02724 16.5056 8.16725L15.7739 8.59999C15.5344 8.74 15.3348 9.08365 15.3348 9.35094V10.6492C15.3348 10.9165 15.5344 11.2601 15.7739 11.4001L16.5056 11.8329C16.7318 11.9729 16.8116 12.2783 16.6786 12.5202ZM10.0005 7.02172C10.5194 7.02172 11.0649 7.149 11.5571 7.41628C13.0473 8.24359 13.5528 10.0637 12.7013 11.4892C12.1292 12.4438 11.0782 12.9784 10.0005 12.9784C9.46831 12.9784 8.93612 12.8511 8.44385 12.5838C6.95373 11.7565 6.43485 9.9364 7.29965 8.51088C7.87175 7.55629 8.92281 7.02172 10.0005 7.02172Z" fill="white"/>
<path fill-rule="evenodd" clip-rule="evenodd" d="M7.93773 8.86065L7.93579 8.86386C7.27827 9.9477 7.66853 11.3378 8.81007 11.9737C9.18849 12.1785 9.59416 12.275 10.0008 12.275C10.8283 12.275 11.629 11.8645 12.0636 11.1396C12.7144 10.0494 12.328 8.65936 11.1914 8.02624C10.8143 7.82217 10.3957 7.72499 10.0008 7.72499C9.17314 7.72499 8.37226 8.1356 7.93773 8.86065ZM11.5571 7.41628C11.0649 7.149 10.5194 7.02172 10.0005 7.02172C8.92281 7.02172 7.87175 7.55629 7.29965 8.51088C6.43485 9.9364 6.95373 11.7565 8.44385 12.5838C8.93612 12.8511 9.46831 12.9784 10.0005 12.9784C11.0782 12.9784 12.1292 12.4438 12.7013 11.4892C13.5528 10.0637 13.0473 8.24359 11.5571 7.41628ZM17.3225 12.8604L16.2551 14.6218C16.0137 15.0395 15.5608 15.2344 15.1488 15.2344C14.9255 15.2344 14.7192 15.1693 14.5672 15.0966L14.5559 15.0911L13.7956 14.6956C13.7938 14.6952 13.7916 14.6947 13.7889 14.6942C13.7699 14.6905 13.7393 14.6871 13.6986 14.6871C13.6463 14.6871 13.6043 14.6972 13.5749 14.709L12.4334 15.3418C12.4318 15.3431 12.4263 15.3473 12.4178 15.3558C12.4037 15.3701 12.387 15.3905 12.3713 15.4159C12.3555 15.4412 12.3441 15.4658 12.3372 15.4858C12.3331 15.4977 12.3315 15.5052 12.3309 15.5081L12.3045 16.3278L12.3042 16.3337C12.2738 16.9449 11.7547 17.5 11.0377 17.5H8.92225C8.25226 17.5 7.6623 16.9982 7.65492 16.3133L7.62901 15.5076C7.62848 15.5046 7.62674 15.4957 7.62181 15.4813C7.61427 15.4592 7.60237 15.4334 7.58673 15.408C7.57097 15.3823 7.55562 15.3639 7.54488 15.3532C7.54379 15.3521 7.54197 15.3504 7.54197 15.3504L6.35932 14.6947L6.35611 14.694C6.34135 14.691 6.31177 14.6871 6.26131 14.6871C6.22064 14.6871 6.19008 14.6905 6.17101 14.6942C6.16833 14.6947 6.1661 14.6952 6.16431 14.6956L5.44523 15.0697C5.24719 15.1904 5.01682 15.2344 4.83771 15.2344C4.42572 15.2344 3.97285 15.0394 3.73145 14.6218L2.67162 12.8729C2.33059 12.3093 2.50777 11.574 3.11455 11.2303L3.83567 10.8039C3.83772 10.8021 3.84163 10.7985 3.84712 10.7926C3.86085 10.7779 3.87744 10.7563 3.89305 10.7295C3.90866 10.7028 3.9193 10.6777 3.92531 10.6585C3.92784 10.6503 3.92903 10.6449 3.92955 10.6423V9.35772C3.92903 9.35505 3.92784 9.34966 3.92531 9.34155C3.9193 9.32228 3.90866 9.29721 3.89305 9.27046C3.87744 9.2437 3.86085 9.22209 3.84712 9.2074C3.84163 9.20152 3.83772 9.19793 3.83567 9.19615L3.11057 8.76733L3.10862 8.76619C2.51954 8.42043 2.35507 7.70126 2.65708 7.15231L2.66408 7.13959L3.73146 5.3782C3.97286 4.96056 4.42573 4.76556 4.83771 4.76556C5.061 4.76556 5.26731 4.83075 5.4193 4.90345L5.43063 4.90887L6.19092 5.30443C6.19271 5.30484 6.19493 5.30532 6.19761 5.30583C6.21669 5.30948 6.24725 5.31285 6.28792 5.31285C6.34026 5.31285 6.38229 5.30277 6.41163 5.29104L7.55314 4.65817C7.55479 4.65693 7.56026 4.65271 7.56871 4.64419C7.58285 4.62995 7.59949 4.60949 7.61528 4.58412C7.63105 4.55877 7.64241 4.53423 7.64937 4.51416C7.65349 4.50226 7.65509 4.49478 7.65564 4.49193L7.682 3.67217L7.6823 3.66626C7.71272 3.05514 8.23189 2.5 8.94886 2.5H11.0643C11.7343 2.5 12.3242 3.00185 12.3316 3.68673L12.3575 4.4924C12.3581 4.49537 12.3598 4.50427 12.3647 4.51871C12.3723 4.54077 12.3842 4.56659 12.3998 4.59203C12.4156 4.61766 12.4309 4.63608 12.4417 4.64679C12.4428 4.64787 12.4446 4.6496 12.4446 4.6496L13.6272 5.30529L13.6304 5.30598C13.6452 5.30898 13.6748 5.31285 13.7252 5.31285C13.7659 5.31285 13.7965 5.30948 13.8155 5.30583C13.8182 5.30532 13.8204 5.30484 13.8222 5.30444L14.5825 4.90887L14.5939 4.90345C14.7354 4.83572 14.9303 4.76556 15.1754 4.76556C15.5881 4.76556 16.0418 4.96119 16.2829 5.38024L17.3284 7.12749L17.3294 7.12906C17.6691 7.69238 17.4915 8.42635 16.8853 8.7697L16.1642 9.19615C16.1621 9.19793 16.1582 9.20152 16.1527 9.2074C16.139 9.22209 16.1224 9.2437 16.1068 9.27046C16.0912 9.29721 16.0805 9.32228 16.0745 9.34155C16.072 9.34966 16.0708 9.35505 16.0703 9.35772V10.6423C16.0708 10.6449 16.072 10.6503 16.0745 10.6585C16.0805 10.6777 16.0912 10.7028 16.1068 10.7295C16.1224 10.7563 16.139 10.7779 16.1527 10.7926C16.1582 10.7985 16.1621 10.8021 16.1642 10.8038L16.8989 11.2384L16.9053 11.2423C17.4698 11.5917 17.6291 12.3031 17.3295 12.8477L17.3225 12.8604ZM16.1575 9.20008L16.1588 9.19935ZM16.5056 8.16725C16.7584 8.02724 16.8383 7.72177 16.6919 7.47994L15.6408 5.7235C15.5477 5.55804 15.3614 5.46894 15.1752 5.46894C15.082 5.46894 15.0022 5.4944 14.9224 5.53258L14.164 5.92715C14.0443 5.99079 13.8846 6.01624 13.725 6.01624C13.552 6.01624 13.3923 5.99079 13.2593 5.91442L12.0885 5.2653C11.8357 5.13802 11.6361 4.79437 11.6228 4.52708L11.5962 3.69977C11.5962 3.41976 11.3567 3.20339 11.064 3.20339H8.94859C8.65589 3.20339 8.42971 3.43249 8.4164 3.69977L8.38979 4.52708C8.37649 4.79437 8.17692 5.12529 7.92413 5.2653L6.75332 5.91442C6.62027 5.97806 6.46062 6.01624 6.28766 6.01624C6.128 6.01624 5.96834 5.99079 5.8486 5.92715L5.09024 5.53258C5.01041 5.4944 4.91728 5.46894 4.83745 5.46894C4.65118 5.46894 4.46492 5.55804 4.37179 5.7235L3.30741 7.47994C3.17437 7.72177 3.25419 8.02724 3.49368 8.16725L4.22543 8.59999C4.46492 8.74 4.66449 9.08365 4.66449 9.35094V10.6492C4.66449 10.9165 4.46492 11.2601 4.22543 11.4001L3.49368 11.8329C3.24089 11.9729 3.16106 12.2783 3.30741 12.5202L4.37179 14.2766C4.46492 14.4421 4.65118 14.5312 4.83745 14.5312C4.91728 14.5312 5.01041 14.5057 5.06363 14.4675L5.82199 14.073C5.94174 14.0093 6.10139 13.9839 6.26105 13.9839C6.43401 13.9839 6.59366 14.0093 6.72671 14.0857L7.89752 14.7348C8.15031 14.8621 8.34988 15.2057 8.36318 15.473L8.38979 16.3003C8.38979 16.5804 8.62928 16.7967 8.92198 16.7967H11.0374C11.3301 16.7967 11.5563 16.5676 11.5696 16.3003L11.5962 15.473C11.6095 15.2057 11.8091 14.8748 12.0619 14.7348L13.2327 14.0857C13.3657 14.0221 13.5254 13.9839 13.6984 13.9839C13.858 13.9839 14.0177 14.0093 14.1374 14.073L14.8958 14.4675C14.9756 14.5057 15.0687 14.5312 15.1486 14.5312C15.3348 14.5312 15.5211 14.4421 15.6142 14.2766L16.6786 12.5202C16.8116 12.2783 16.7318 11.9729 16.5056 11.8329L15.7739 11.4001C15.5344 11.2601 15.3348 10.9165 15.3348 10.6492V9.35094C15.3348 9.08365 15.5344 8.74 15.7739 8.59999L16.5056 8.16725Z" fill="white"/>
</svg>
