<svg width="20" height="20" viewBox="0 0 20 20" fill="none" xmlns="http://www.w3.org/2000/svg">
<path fill-rule="evenodd" clip-rule="evenodd" d="M4.10449 16.2789C4.49675 16.3317 5.02646 16.3332 5.83334 16.3332L16.75 16.3332L16.75 7.83325L12.5716 7.83325C12.5565 7.83325 12.5413 7.83325 12.5261 7.83325H4.58334C4.10131 7.83325 3.64739 7.71288 3.25001 7.50055L3.25001 13.7499C3.25001 14.5568 3.2516 15.0865 3.30434 15.4788C3.35418 15.8495 3.43699 15.9833 3.51849 16.0648C3.59999 16.1463 3.7338 16.2291 4.10449 16.2789ZM1.75001 4.99992L1.75001 13.8003C1.74997 14.5429 1.74994 15.1746 1.81772 15.6786C1.88991 16.2157 2.05118 16.7188 2.45783 17.1254C2.86449 17.5321 3.36759 17.6933 3.90462 17.7655C4.4087 17.8333 5.04032 17.8333 5.78294 17.8333L18.25 17.8332L18.25 6.33325H16.4886C16.5906 6.17364 16.6791 6.00436 16.7526 5.82697C16.8919 5.49064 16.9481 5.13902 16.9745 4.75219C17 4.37789 17 3.91961 17 3.35931L17 2.16658L4.58334 2.16658C3.01853 2.16658 1.75001 3.43511 1.75001 4.99992ZM12.5 6.33325C13.0927 6.33325 13.4996 6.33284 13.8168 6.3112C14.1273 6.29002 14.2966 6.25103 14.4197 6.20004C14.8485 6.02242 15.1892 5.68174 15.3668 5.25295C15.4178 5.12985 15.4568 4.96054 15.478 4.65009C15.4953 4.39618 15.499 4.08475 15.4998 3.66658L4.58334 3.66658C3.84696 3.66658 3.25001 4.26354 3.25001 4.99992C3.25001 5.7363 3.84696 6.33325 4.58334 6.33325H12.5Z" fill="#58595A"/>
<path d="M15.5616 12.0944C15.5616 12.7068 15.0652 13.2032 14.4528 13.2032C13.8403 13.2032 13.3439 12.7068 13.3439 12.0944C13.3439 11.4819 13.8403 10.9855 14.4528 10.9855C15.0652 10.9855 15.5616 11.4819 15.5616 12.0944Z" fill="#58595A"/>
</svg>
