<svg width="20" height="20" viewBox="0 0 20 20" fill="none" xmlns="http://www.w3.org/2000/svg">
<path fill-rule="evenodd" clip-rule="evenodd" d="M4.16669 3.65385C4.16669 3.01659 4.70068 2.5 5.3594 2.5L9.53388 2.5V6.82692C9.53388 7.8125 10.1302 8.60577 11.3229 8.60577L16.1667 8.60577L16.0938 16.3462C16.0938 16.9834 15.5598 17.5 14.9011 17.5H5.3594C4.70068 17.5 4.16669 16.9834 4.16669 16.3462L4.16669 3.65385ZM6.94967 11.4583C6.94967 11.1132 7.21667 10.8333 7.54603 10.8333L12.7144 10.8333C13.0438 10.8333 13.3108 11.1132 13.3108 11.4583C13.3108 11.8035 13.0438 12.0833 12.7144 12.0833L7.54603 12.0833C7.21667 12.0833 6.94967 11.8035 6.94967 11.4583ZM7.54603 13.3333C7.21667 13.3333 6.94967 13.6132 6.94967 13.9583C6.94967 14.3035 7.21667 14.5833 7.54603 14.5833L11.1242 14.5833C11.4535 14.5833 11.7205 14.3035 11.7205 13.9583C11.7205 13.6132 11.4535 13.3333 11.1242 13.3333L7.54603 13.3333Z" fill="white"/>
<path d="M11.6546 6.875L15.1651 6.875C15.4606 6.875 15.6085 6.50063 15.3996 6.28168L11.8891 2.60249C11.6802 2.38354 11.3229 2.53861 11.3229 2.84826V6.52744C11.3229 6.71939 11.4714 6.875 11.6546 6.875Z" fill="white"/>
</svg>
