<svg width="20" height="20" viewBox="0 0 20 20" fill="none" xmlns="http://www.w3.org/2000/svg">
<path d="M3.33337 9.87049C3.33337 9.41221 3.52208 8.97415 3.85511 8.65933L9.14135 3.66218C9.6232 3.20668 10.3769 3.20668 10.8587 3.66218L16.145 8.65933C16.478 8.97415 16.6667 9.41221 16.6667 9.87049V14.1794C16.6667 15.5601 15.5474 16.6794 14.1667 16.6794H13.4412V13.8402C13.4412 12.9197 12.695 12.1735 11.7745 12.1735H8.27454C7.35406 12.1735 6.60787 12.9197 6.60787 13.8402V16.6794H5.83337C4.45266 16.6794 3.33337 15.5601 3.33337 14.1794V9.87049Z" fill="white"/>
<path fill-rule="evenodd" clip-rule="evenodd" d="M12.4412 17.6794V13.8402C12.4412 13.472 12.1427 13.1735 11.7745 13.1735H8.27454C7.90635 13.1735 7.60787 13.472 7.60787 13.8402V17.6794H5.83337C3.90038 17.6794 2.33337 16.1124 2.33337 14.1794V9.87049C2.33337 9.13724 2.6353 8.43634 3.16816 7.93263L8.45439 2.93549C9.32173 2.11558 10.6784 2.11558 11.5457 2.93549L16.8319 7.93263C17.3648 8.43634 17.6667 9.13724 17.6667 9.87049V14.1794C17.6667 16.1124 16.0997 17.6794 14.1667 17.6794H12.4412ZM5.60787 16.6694C4.33282 16.5554 3.33337 15.4841 3.33337 14.1794V9.87049C3.33337 9.41221 3.52208 8.97415 3.85511 8.65933L9.14135 3.66218C9.6232 3.20668 10.3769 3.20668 10.8587 3.66218L16.145 8.65933C16.478 8.97415 16.6667 9.41221 16.6667 9.87049V14.1794C16.6667 15.4673 15.6928 16.5278 14.4412 16.6645C14.3511 16.6743 14.2595 16.6794 14.1667 16.6794H13.4412V13.8402C13.4412 12.9197 12.695 12.1735 11.7745 12.1735H8.27454C7.35406 12.1735 6.60787 12.9197 6.60787 13.8402V16.6794H5.83337C5.75737 16.6794 5.68215 16.676 5.60787 16.6694Z" fill="white"/>
</svg>
