<svg width="20" height="20" viewBox="0 0 20 20" fill="none" xmlns="http://www.w3.org/2000/svg">
<path d="M15.834 4.16667C16.055 4.16667 16.267 4.07887 16.4232 3.92259C16.5795 3.76631 16.6673 3.55435 16.6673 3.33333C16.6673 3.11232 16.5795 2.90036 16.4232 2.74408C16.267 2.5878 16.055 2.5 15.834 2.5H4.16732C3.9463 2.5 3.73434 2.5878 3.57806 2.74408C3.42178 2.90036 3.33398 3.11232 3.33398 3.33333C3.33398 3.55435 3.42178 3.76631 3.57806 3.92259C3.73434 4.07887 3.9463 4.16667 4.16732 4.16667H15.834ZM5.87565 10.5858C5.95305 10.6633 6.04495 10.7248 6.14612 10.7667C6.24728 10.8087 6.35572 10.8302 6.46523 10.8302C6.57475 10.8302 6.68319 10.8087 6.78435 10.7667C6.88552 10.7248 6.97742 10.6633 7.05482 10.5858L9.16732 8.4725V16.6667C9.16732 16.8877 9.25512 17.0996 9.4114 17.2559C9.56768 17.4122 9.77964 17.5 10.0007 17.5C10.2217 17.5 10.4336 17.4122 10.5899 17.2559C10.7462 17.0996 10.834 16.8877 10.834 16.6667V8.4725L12.9473 10.5858C13.1037 10.7421 13.3157 10.8298 13.5368 10.8298C13.7578 10.8297 13.9698 10.7418 14.1261 10.5854C14.2823 10.429 14.3701 10.217 14.37 9.99596C14.3699 9.7749 14.282 9.56292 14.1257 9.40667L10.5898 5.87167C10.4335 5.71544 10.2216 5.62768 10.0007 5.62768C9.77968 5.62768 9.56776 5.71544 9.41148 5.87167L5.87565 9.40667C5.79817 9.48406 5.7367 9.57597 5.69477 9.67713C5.65283 9.7783 5.63125 9.88674 5.63125 9.99625C5.63125 10.1058 5.65283 10.2142 5.69477 10.3154C5.7367 10.4165 5.79817 10.5084 5.87565 10.5858Z" fill="white"/>
</svg>
