<svg width="32" height="32" viewBox="0 0 32 32" fill="none" xmlns="http://www.w3.org/2000/svg">
<path d="M16 29.3333C23.3638 29.3333 29.3333 23.3638 29.3333 16C29.3333 8.63616 23.3638 2.66663 16 2.66663C8.63616 2.66663 2.66663 8.63616 2.66663 16C2.66663 23.3638 8.63616 29.3333 16 29.3333Z" fill="#2A5ADA"/>
<g clip-path="url(#clip0_4266_151)">
<path d="M16 6.66663L14.3069 7.65134L9.69312 10.3486L8 11.3333V20.6666L9.69312 21.6513L14.3492 24.3486L16.0423 25.3333L17.7354 24.3486L22.3069 21.6513L24 20.6666V11.3333L22.3069 10.3486L17.6931 7.65134L16 6.66663ZM11.3862 18.6972V13.3027L16 10.6055L20.6138 13.3027V18.6972L16 21.3945L11.3862 18.6972Z" fill="white"/>
</g>
<defs>
<clipPath id="clip0_4266_151">
<rect width="16" height="18.6667" fill="white" transform="translate(8 6.66663)"/>
</clipPath>
</defs>
</svg>
