<svg width="82" height="22" viewBox="0 0 82 22" fill="none" xmlns="http://www.w3.org/2000/svg">
<path fill-rule="evenodd" clip-rule="evenodd" d="M19.2 6.53302C19.2 5.89998 18.7224 5.3868 18.1333 5.3868H17.0667C16.4776 5.3868 16 5.89998 16 6.53302V16.467C16 17.1 16.4776 17.6132 17.0667 17.6132H18.1333C18.7224 17.6132 19.2 17.1 19.2 16.467V6.53302ZM11.7659 7.83208H12.8326C13.4217 7.83208 13.8992 8.35758 13.8992 9.00581V16.4395C13.8992 17.0877 13.4217 17.6132 12.8326 17.6132H11.7659C11.1768 17.6132 10.6992 17.0877 10.6992 16.4395V9.00581C10.6992 8.35758 11.1768 7.83208 11.7659 7.83208ZM7.43411 10.4811H6.36745C5.77834 10.4811 5.30078 11.0133 5.30078 11.6698V16.4245C5.30078 17.081 5.77834 17.6132 6.36745 17.6132H7.43411C8.02322 17.6132 8.50078 17.081 8.50078 16.4245V11.6698C8.50078 11.0133 8.02322 10.4811 7.43411 10.4811ZM2.13333 12.9264H1.06667C0.477563 12.9264 0 13.451 0 14.0981V16.4415C0 17.0886 0.477563 17.6132 1.06667 17.6132H2.13333C2.72244 17.6132 3.2 17.0886 3.2 16.4415V14.0981C3.2 13.451 2.72244 12.9264 2.13333 12.9264Z" fill="white"/>
<path fill-rule="evenodd" clip-rule="evenodd" d="M36.7713 7.80213C39.2584 7.80223 41.6504 8.72432 43.4529 10.3778C43.5887 10.5054 43.8056 10.5038 43.9393 10.3742L45.2368 9.11072C45.3045 9.04496 45.3422 8.95588 45.3417 8.8632C45.3411 8.77052 45.3023 8.68187 45.2338 8.61688C40.5028 4.24217 33.0391 4.24217 28.3081 8.61688C28.2395 8.68183 28.2006 8.77044 28.2 8.86313C28.1994 8.95581 28.237 9.04491 28.3047 9.11072L29.6026 10.3742C29.7361 10.504 29.9533 10.5056 30.0889 10.3778C31.8917 8.72421 34.2839 7.80212 36.7713 7.80213ZM36.7679 12.0224C38.1253 12.0223 39.4341 12.5341 40.4403 13.4582C40.5763 13.5893 40.7907 13.5865 40.9234 13.4518L42.2106 12.1325C42.2784 12.0633 42.3161 11.9694 42.3151 11.8718C42.3141 11.7743 42.2746 11.6812 42.2054 11.6134C39.1416 8.72257 34.3969 8.72257 31.333 11.6134C31.2638 11.6812 31.2244 11.7743 31.2234 11.8719C31.2225 11.9695 31.2603 12.0634 31.3282 12.1325L32.6151 13.4518C32.7478 13.5865 32.9621 13.5893 33.0982 13.4582C34.1037 12.5347 35.4115 12.023 36.7679 12.0224ZM39.2924 14.816C39.2943 14.9213 39.2572 15.0229 39.1899 15.0967L37.0133 17.5514C36.9495 17.6236 36.8625 17.6642 36.7717 17.6642C36.6809 17.6642 36.5939 17.6236 36.5301 17.5514L34.3531 15.0967C34.2858 15.0228 34.2489 14.9212 34.2508 14.8159C34.2528 14.7105 34.2936 14.6108 34.3636 14.5401C35.7537 13.2262 37.7897 13.2262 39.1798 14.5401C39.2497 14.6108 39.2904 14.7106 39.2924 14.816Z" fill="white"/>
<rect opacity="0.35" x="54.8417" y="5.5" width="24" height="12" rx="3.8" stroke="white"/>
<path opacity="0.4" d="M80.3417 9.78113V13.8566C81.1464 13.5114 81.6697 12.7085 81.6697 11.8189C81.6697 10.9293 81.1464 10.1263 80.3417 9.78113" fill="white"/>
<rect x="56.3417" y="7" width="21" height="9" rx="2.5" fill="white"/>
</svg>
