<svg width="32" height="32" viewBox="0 0 32 32" fill="none" xmlns="http://www.w3.org/2000/svg">
<path d="M16 29.3334C23.3638 29.3334 29.3333 23.3638 29.3333 16C29.3333 8.63622 23.3638 2.66669 16 2.66669C8.63616 2.66669 2.66663 8.63622 2.66663 16C2.66663 23.3638 8.63616 29.3334 16 29.3334Z" fill="#4B0058"/>
<path fill-rule="evenodd" clip-rule="evenodd" d="M10.8977 23.1129H8.82092L13.1679 17.9671C14.7323 16.1147 17.2685 16.1147 18.8322 17.9671L23.1799 23.1129H21.1031L17.7938 19.1965C16.803 18.0231 15.1971 18.0231 14.2063 19.1965L10.8977 23.1129ZM21.0768 8.89062H23.1528L18.8323 14.0053C17.2679 15.8568 14.7324 15.8568 13.168 14.0053L8.84751 8.89062H10.9243L14.2064 12.776C15.1964 13.9484 16.8024 13.9484 17.7939 12.776L21.0768 8.89062Z" fill="white"/>
</svg>
