<svg width="32" height="32" viewBox="0 0 32 32" fill="none" xmlns="http://www.w3.org/2000/svg">
<path d="M16 29.3334C23.3638 29.3334 29.3333 23.3638 29.3333 16C29.3333 8.63622 23.3638 2.66669 16 2.66669C8.63616 2.66669 2.66663 8.63622 2.66663 16C2.66663 23.3638 8.63616 29.3334 16 29.3334Z" fill="#FF7D43"/>
<path d="M16.9012 8.35059L16.3358 10.6162C16.7132 10.7024 17.093 10.7897 17.4628 10.8818L18.0243 8.63086L19.4315 8.98145L18.8553 11.2939C20.6321 11.906 21.932 12.8236 21.6766 14.5303C21.4918 15.7792 20.799 16.3836 19.8798 16.5957C21.1422 17.253 21.7845 18.2615 21.1727 20.0088C20.4132 22.1792 18.6085 22.3632 16.2089 21.9092L15.6259 24.2432L14.2186 23.8926L14.7938 21.5889C14.4291 21.4983 14.0557 21.4021 13.6718 21.2979L13.0956 23.6123L11.6893 23.2607L12.2723 20.9229C11.9437 20.8387 11.6091 20.7494 11.2684 20.6641L9.43738 20.207L10.1356 18.5967C10.1356 18.5967 11.1731 18.872 11.1591 18.8516C11.5572 18.9501 11.7338 18.6907 11.8036 18.5176L12.7245 14.8281C12.776 14.8405 12.8262 14.8527 12.8729 14.8643C12.8168 14.8418 12.7657 14.8274 12.7264 14.8174L13.3827 12.1836C13.3999 11.8846 13.2972 11.5075 12.7274 11.3652C12.7466 11.3498 11.705 11.1113 11.705 11.1113L12.08 9.6084L14.0204 10.0928L14.0184 10.0996C14.3102 10.1722 14.6116 10.2418 14.9178 10.3115L15.494 8L16.9012 8.35059ZM14.1268 19.6055C15.0807 19.8423 18.0236 20.7871 18.4589 19.04C18.9134 17.2176 15.8545 16.7459 14.9003 16.5078L14.1268 19.6055ZM15.2567 15.0898C16.0512 15.2879 18.5004 16.0952 18.8973 14.5059C19.3106 12.8476 16.7514 12.4773 15.9569 12.2793L15.2567 15.0898Z" fill="white"/>
</svg>
