<svg width="16" height="16" viewBox="0 0 16 16" fill="none" xmlns="http://www.w3.org/2000/svg">
<path d="M5.93993 8.01844C5.93993 9.10119 6.86172 9.97893 7.9988 9.97893C9.13589 9.97893 10.0577 9.10119 10.0577 8.01844C10.0577 6.93569 9.13589 6.05794 7.9988 6.05794C6.86172 6.05794 5.93993 6.93569 5.93993 8.01844Z" fill="white"/>
<path fill-rule="evenodd" clip-rule="evenodd" d="M8 4C9.95154 4 11.4371 4.59028 12.4447 5.38371C13.4299 6.15944 14 7.17019 14 8.02C14 8.86981 13.4299 9.88056 12.4447 10.6563C11.4371 11.4497 9.95154 12.04 8 12.04C6.04846 12.04 4.56292 11.4497 3.55528 10.6563C2.57011 9.88056 2 8.86981 2 8.02C2 7.17019 2.57011 6.15944 3.55528 5.38371C4.56292 4.59028 6.04846 4 8 4ZM12.9417 8.02C12.9417 7.59937 12.6178 6.8636 11.7883 6.21043C10.9813 5.57495 9.73138 5.05393 8 5.05393C6.26862 5.05393 5.01874 5.57495 4.21169 6.21043C3.38217 6.8636 3.05833 7.59937 3.05833 8.02C3.05833 8.44063 3.38217 9.1764 4.21169 9.82957C5.01874 10.465 6.26862 10.9861 8 10.9861C9.73138 10.9861 10.9813 10.465 11.7883 9.82957C12.6178 9.1764 12.9417 8.44063 12.9417 8.02Z" fill="white"/>
</svg>
