<?xml version="1.0" encoding="UTF-8"?>
<svg id="Layer_1" xmlns="http://www.w3.org/2000/svg" version="1.1" viewBox="0 0 20 20">
  <!-- Generator: Adobe Illustrator 30.1.0, SVG Export Plug-In . SVG Version: 2.1.1 Build 136)  -->
  <defs>
    <style>
      .st0 {
        fill-rule: evenodd;
      }

      .st0, .st1 {
        fill: #fff;
      }
    </style>
  </defs>
  <path class="st1" d="M3.3,9.9c0-.5.2-.9.5-1.2l5.3-5c.5-.5,1.2-.5,1.7,0l5.3,5c.3.3.5.8.5,1.2v4.3c0,1.4-1.1,2.5-2.5,2.5h-.7v-2.8c0-.9-.7-1.7-1.7-1.7h-3.5c-.9,0-1.7.7-1.7,1.7v2.8h-.8c-1.4,0-2.5-1.1-2.5-2.5v-4.3Z"/>
  <path class="st0" d="M12.4,17.7v-3.8c0-.4-.3-.7-.7-.7h-3.5c-.4,0-.7.3-.7.7v3.8h-1.8c-1.9,0-3.5-1.6-3.5-3.5v-4.3c0-.7.3-1.4.8-1.9l5.3-5c.9-.8,2.2-.8,3.1,0l5.3,5c.5.5.8,1.2.8,1.9v4.3c0,1.9-1.6,3.5-3.5,3.5h-1.7Z"/>
</svg>