<svg width="32" height="32" viewBox="0 0 32 32" fill="none" xmlns="http://www.w3.org/2000/svg">
<path fill-rule="evenodd" clip-rule="evenodd" d="M16 2.66663C8.6364 2.66663 2.66663 8.6364 2.66663 16C2.66663 23.3635 8.6364 29.3333 16 29.3333C23.3635 29.3333 29.3333 23.3635 29.3333 16C29.3333 8.6364 23.3635 2.66663 16 2.66663Z" fill="#009393"/>
<path fill-rule="evenodd" clip-rule="evenodd" d="M17.5823 17.6118C17.494 17.618 17.0373 17.6433 16.0186 17.6433C15.2084 17.6433 14.6331 17.6207 14.4313 17.6118C11.3002 17.4836 8.96303 16.9764 8.96303 16.3692C8.96303 15.7619 11.3002 15.2554 14.4313 15.1251V17.1067C14.6361 17.1204 15.2224 17.1526 16.0326 17.1526C17.0049 17.1526 17.4917 17.1149 17.5794 17.1074V15.1265C20.7039 15.2561 23.0359 15.7633 23.0359 16.3692C23.0359 16.9751 20.7046 17.4823 17.5794 17.6111L17.5823 17.6118ZM17.5823 14.9216V13.1484H21.9428V10.4445H10.0708V13.1484H14.4306V14.9209C10.8869 15.0724 8.22205 15.7256 8.22205 16.5083C8.22205 17.291 10.8869 17.9436 14.4306 18.0957V23.7778H17.5816V18.0937C21.1171 17.9422 23.7776 17.2897 23.7776 16.5076C23.7776 15.7256 21.1193 15.073 17.5816 14.9209L17.5823 14.9216Z" fill="white"/>
</svg>
