<svg width="20" height="20" viewBox="0 0 20 20" fill="none" xmlns="http://www.w3.org/2000/svg">
<path d="M14.4614 17.15L14.3547 17.0269C14.3895 17.0674 14.4251 17.1085 14.4614 17.15Z" fill="white"/>
<path fill-rule="evenodd" clip-rule="evenodd" d="M11.2316 2.5H7.93638C5.39834 2.5 3.33398 4.64356 3.33398 7.27898V10.4742C3.33398 13.1096 5.39834 15.2532 7.93638 15.2532H10.8766C12.6854 15.2532 13.0706 15.4782 13.9174 16.5047L13.9245 16.5132C14.054 16.6701 14.197 16.8434 14.3547 17.0269C14.6188 17.3188 14.813 17.5 15.1982 17.5C15.5835 17.5 15.7952 17.2016 15.8304 16.8116L15.834 16.8103V7.27898C15.834 4.64356 13.7696 2.5 11.2316 2.5ZM7.97736 5.9894C8.33235 5.60284 8.87575 5.33595 9.62645 5.33595C10.5288 5.33595 11.0697 5.68484 11.3702 6.14032C11.6564 6.57424 11.6902 7.05429 11.6902 7.26994C11.6902 7.72222 11.508 8.0994 11.2715 8.40863C11.0377 8.71428 10.7367 8.97187 10.4697 9.18813L10.4656 9.19146C10.2848 9.33277 10.2068 9.43694 10.1725 9.50079C10.1421 9.55739 10.1396 9.59363 10.1396 9.62422V9.92106C10.1396 10.2859 9.84155 10.5551 9.51197 10.5551C9.18239 10.5551 8.88435 10.2859 8.88435 9.92106V9.62422C8.88435 9.07218 9.17739 8.6004 9.67896 8.19675L9.6802 8.19575C9.89852 8.02192 10.0918 7.85749 10.2305 7.69022C10.3695 7.52265 10.4246 7.38686 10.4246 7.26994C10.4246 6.99507 10.3532 6.85231 10.2602 6.76933C10.1576 6.67775 9.96803 6.604 9.62645 6.604C9.12458 6.604 8.92609 6.79527 8.83749 6.93424C8.74055 7.0863 8.73468 7.2413 8.73468 7.2413L8.73466 7.24007V7.46443C8.73466 7.82931 8.43662 8.09845 8.10704 8.09845C7.77747 8.09845 7.47942 7.82931 7.47942 7.46443V7.23924C7.47942 6.84475 7.62914 6.36861 7.97736 5.9894ZM8.77527 12.0625C8.77527 11.5975 9.15352 11.2495 9.58485 11.2495C10.0162 11.2495 10.3944 11.5975 10.3944 12.0625C10.3944 12.5275 10.0162 12.8755 9.58485 12.8755C9.15352 12.8755 8.77527 12.5275 8.77527 12.0625Z" fill="white"/>
</svg>
