<svg width="20" height="20" viewBox="0 0 20 20" fill="none" xmlns="http://www.w3.org/2000/svg">
<path d="M16.7768 10.1943C16.7139 10.0708 16.7139 9.92919 16.7768 9.80573L17.3598 8.66126C17.6844 8.02403 17.4272 7.26452 16.7743 6.93209L15.6015 6.33503C15.475 6.27064 15.3883 6.15603 15.3635 6.02071L15.1342 4.76597C15.0064 4.06736 14.333 3.59791 13.6012 3.69726L12.2867 3.87567C12.1448 3.89489 12.0045 3.85112 11.9016 3.75559L10.9474 2.86989C10.4162 2.37672 9.58385 2.37669 9.05259 2.86989L8.0984 3.75568C7.99545 3.85124 7.85515 3.89492 7.7133 3.87576L6.3988 3.69735C5.66679 3.59794 4.99356 4.06745 4.86584 4.76605L4.63648 6.02074C4.61172 6.15609 4.52498 6.27067 4.39849 6.33509L3.22575 6.93215C2.57279 7.26455 2.31559 8.02412 2.6402 8.66135L3.22321 9.80579C3.28611 9.92928 3.28611 10.0709 3.22321 10.1944L2.64017 11.3388C2.31556 11.976 2.57276 12.7355 3.22572 13.068L4.39846 13.665C4.52498 13.7294 4.61172 13.844 4.63648 13.9793L4.86584 15.2341C4.98211 15.8701 5.55043 16.3161 6.20361 16.316C6.26794 16.316 6.33322 16.3117 6.39883 16.3028L7.71333 16.1243C7.85509 16.105 7.99548 16.1489 8.09843 16.2444L9.05259 17.1301C9.31828 17.3767 9.65908 17.5 10 17.5C10.3408 17.5 10.6818 17.3767 10.9474 17.1301L11.9016 16.2444C12.0046 16.1489 12.1449 16.1052 12.2867 16.1243L13.6012 16.3028C14.3333 16.4021 15.0064 15.9327 15.1342 15.2341L15.3635 13.9794C15.3883 13.844 15.475 13.7294 15.6015 13.665L16.7743 13.068C17.4272 12.7356 17.6844 11.976 17.3598 11.3388L16.7768 10.1943ZM8.19674 6.10693C9.10819 6.10693 9.84972 6.81845 9.84972 7.69301C9.84972 8.56757 9.10819 9.2791 8.19674 9.2791C7.2853 9.2791 6.54377 8.56757 6.54377 7.69301C6.54377 6.81845 7.2853 6.10693 8.19674 6.10693ZM7.34355 13.1607C7.25553 13.2451 7.14015 13.2874 7.0248 13.2874C6.90945 13.2874 6.79404 13.2451 6.70604 13.1607C6.53 12.9917 6.53 12.7178 6.70604 12.5489L12.6564 6.83934C12.8324 6.67042 13.1179 6.67042 13.294 6.83934C13.47 7.00826 13.47 7.28216 13.294 7.45108L7.34355 13.1607ZM11.8032 13.8931C10.8918 13.8931 10.1502 13.1816 10.1502 12.307C10.1502 11.4325 10.8918 10.721 11.8032 10.721C12.7146 10.721 13.4562 11.4325 13.4562 12.307C13.4562 13.1816 12.7146 13.8931 11.8032 13.8931Z" fill="white"/>
<path d="M11.8033 11.5863C11.389 11.5863 11.0519 11.9097 11.0519 12.3072C11.0519 12.7047 11.389 13.0281 11.8033 13.0281C12.2176 13.0281 12.5546 12.7047 12.5546 12.3072C12.5546 11.9097 12.2176 11.5863 11.8033 11.5863Z" fill="white"/>
<path d="M8.19684 6.9721C7.78255 6.9721 7.44551 7.2955 7.44551 7.69302C7.44551 8.09055 7.78255 8.41398 8.19684 8.41398C8.61114 8.41398 8.94821 8.09058 8.94821 7.69302C8.94818 7.29553 8.61114 6.9721 8.19684 6.9721Z" fill="white"/>
</svg>
