<svg width="20" height="20" viewBox="0 0 20 20" fill="none" xmlns="http://www.w3.org/2000/svg">
<path d="M11.2031 6.625C11.3487 6.62546 11.4884 6.68358 11.5908 6.78711L11.9707 7.17188C12.1818 7.38583 12.1811 7.73059 11.9688 7.94336L6.36426 13.7051C6.26159 13.8079 6.12188 13.8662 5.97656 13.8662C5.83123 13.8662 5.69151 13.808 5.58887 13.7051L2.61523 10.7246C2.40236 10.5113 2.4018 10.1659 2.61426 9.95215L2.99414 9.57031C3.09661 9.46741 3.23564 9.40942 3.38086 9.40918C3.52615 9.40903 3.6658 9.46664 3.76855 9.56934L5.97656 11.7793L10.8145 6.78516C10.9174 6.68222 11.0575 6.62462 11.2031 6.625ZM16.6191 6.625C16.7647 6.62538 16.9044 6.6837 17.0068 6.78711L17.3867 7.17188C17.5981 7.38582 17.5973 7.73049 17.3848 7.94336L11.7803 13.7051C11.6777 13.8078 11.5387 13.8661 11.3936 13.8662C11.2482 13.8662 11.1085 13.808 11.0059 13.7051L9.69824 12.3906C9.48538 12.1772 9.48465 11.8318 9.69727 11.6182L10.0771 11.2373C10.1797 11.1342 10.3194 11.0763 10.4648 11.0762C10.6101 11.0761 10.7498 11.1335 10.8525 11.2363L11.3936 11.7793L16.2305 6.78516C16.3334 6.6821 16.4735 6.6247 16.6191 6.625Z" fill="white"/>
</svg>
