<svg width="20" height="20" viewBox="0 0 20 20" fill="none" xmlns="http://www.w3.org/2000/svg">
<g clip-path="url(#clip0_4274_17660)">
<path fill-rule="evenodd" clip-rule="evenodd" d="M9.25017 14.2032V12.0083C9.25017 6.99167 13.3169 2.92493 18.3335 2.92493L19.1828 2.92493V5.11984C19.1828 10.1364 15.1161 14.2032 10.0995 14.2032H9.25017ZM10.7502 12.6756C14.6337 12.3456 17.6828 9.0888 17.6828 5.11984V4.45245C13.7993 4.78249 10.7502 8.0393 10.7502 12.0083V12.6756Z" fill="#58595A"/>
<path fill-rule="evenodd" clip-rule="evenodd" d="M10.7498 14.2032L10.7502 12.0083C10.7502 6.99167 6.68302 2.92493 1.66643 2.92493L0.817139 2.92493L0.817139 5.11984C0.817139 10.1364 4.88388 14.2032 9.90047 14.2032H10.7498ZM9.24976 12.6756C5.36622 12.3456 2.31714 9.0888 2.31714 5.11984V4.45245C6.20068 4.78249 9.25017 8.0393 9.25017 12.0083L9.24976 12.6756Z" fill="#58595A"/>
<path fill-rule="evenodd" clip-rule="evenodd" d="M9.25058 17.831V11.3755H10.7506V17.831H9.25058Z" fill="#58595A"/>
</g>
<defs>
<clipPath id="clip0_4274_17660">
<rect width="20" height="20" fill="white"/>
</clipPath>
</defs>
</svg>
