<svg width="24" height="24" viewBox="0 0 24 24" fill="none" xmlns="http://www.w3.org/2000/svg">
<path d="M19.3752 9.17143C18.4063 5.59783 15.4709 3 12 3C8.52915 3 5.59367 5.59783 4.62478 9.17143H4.02857C3.46051 9.17143 3 9.63194 3 10.2V14.3143C3 14.8823 3.46051 15.3429 4.02857 15.3429H5.82857C6.39664 15.3429 6.85714 14.8823 6.85714 14.3143V10.2C6.85714 9.63194 6.39664 9.17143 5.82857 9.17143H5.58107C6.51548 6.17522 9.03678 4.02857 12.0005 4.02857C14.9642 4.02857 17.4855 6.17522 18.4199 9.17143H18.1714C17.6034 9.17143 17.1429 9.63194 17.1429 10.2V14.3143C17.1429 14.8333 17.5272 15.2625 18.0268 15.3328C17.1458 17.2285 15.5888 18.6579 13.7191 19.2091C13.5366 19.0437 13.2944 18.9429 13.0286 18.9429H10.9714C10.4034 18.9429 9.94286 19.4034 9.94286 19.9714C9.94286 20.5395 10.4034 21 10.9714 21H13.0286C13.5259 21 13.9408 20.647 14.0364 20.1779C16.2666 19.4879 18.0942 17.6922 19.032 15.3429H19.9714C20.5395 15.3429 21 14.8823 21 14.3143V10.2C21 9.63194 20.5395 9.17143 19.9714 9.17143H19.3752Z" fill="white"/>
<path d="M15.4286 11.3182C15.4286 13.1821 13.2632 15 11.9394 15C10.7368 15 8.57142 13.1821 8.57142 11.3182C8.57142 9.45422 8.81108 8.25 11.9394 8.25C15.0677 8.25 15.4286 9.45422 15.4286 11.3182Z" fill="white"/>
</svg>
