<svg width="24" height="24" viewBox="0 0 24 24" fill="none" xmlns="http://www.w3.org/2000/svg">
<path fill-rule="evenodd" clip-rule="evenodd" d="M22.098 8.89177L21.0232 9.96657L18.0833 7.02667V14.8081C18.0833 17.437 15.9522 19.5681 13.3233 19.5681H12.9001V18.0481H13.3233C15.1127 18.0481 16.5633 16.5975 16.5633 14.8081V7.02667L13.6234 9.96657L12.5486 8.89177L17.3233 4.11707L22.098 8.89177Z" fill="white"/>
<path fill-rule="evenodd" clip-rule="evenodd" d="M1.9021 15.1082L2.9769 14.0334L5.91681 16.9733L5.91681 9.19187C5.91681 6.56299 8.04793 4.43187 10.6768 4.43187H11.1V5.95187H10.6768C8.8874 5.95187 7.43681 7.40246 7.43681 9.19187L7.43681 16.9733L10.3767 14.0334L11.4515 15.1082L6.67681 19.8829L1.9021 15.1082Z" fill="white"/>
</svg>
