<svg width="16" height="16" viewBox="0 0 16 16" fill="none" xmlns="http://www.w3.org/2000/svg">
<g clip-path="url(#clip0_4281_19013)">
<path d="M6.4899 5.9883C6.29398 5.98825 6.15933 5.86567 6.14326 5.67794L6.1416 5.63962V5.40709C6.1416 4.82721 7.04883 4.36061 7.99983 4.36059C8.95085 4.36059 9.8583 4.8272 9.8583 5.40709L9.85806 5.63962L9.85664 5.67794C9.84163 5.85322 9.72314 5.97165 9.54804 5.98664L9.50976 5.9883H6.4899ZM8.52393 3.14353C8.52388 2.86878 8.29537 2.63495 7.99983 2.63495C7.70432 2.63498 7.47602 2.8688 7.47596 3.14353C7.47596 3.41831 7.70429 3.65233 7.99983 3.65236C8.2954 3.65236 8.52393 3.41833 8.52393 3.14353ZM6.50455 5.62496H9.49511L9.49535 5.40709L9.4944 5.38959C9.48473 5.29783 9.39794 5.14173 9.1116 4.98509C8.82505 4.82834 8.42143 4.72393 7.99983 4.72393C7.57823 4.72394 7.17459 4.82833 6.88806 4.98509C6.58278 5.15211 6.50455 5.31864 6.50455 5.40709V5.62496ZM8.8857 3.18848C8.86196 3.64924 8.47436 4.0157 7.99983 4.0157C7.52533 4.01567 7.13794 3.64922 7.11419 3.18848L7.11301 3.14353C7.11306 2.66199 7.51006 2.27164 7.99983 2.27161C8.48963 2.27161 8.88683 2.66197 8.88688 3.14353L8.8857 3.18848Z" fill="white"/>
<path d="M5.70281 12.3656C5.70276 11.0737 4.65576 10.0266 3.36387 10.0266C2.07202 10.0267 1.02498 11.0737 1.02493 12.3656C1.02493 13.6575 2.07199 14.7045 3.36387 14.7045V15.4047C1.68538 15.4047 0.324707 14.0441 0.324707 12.3656C0.32476 10.6871 1.68541 9.32646 3.36387 9.3264C5.04237 9.3264 6.40298 10.6871 6.40303 12.3656C6.40303 14.0441 5.0424 15.4047 3.36387 15.4047V14.7045C4.65579 14.7045 5.70281 13.6575 5.70281 12.3656Z" fill="white"/>
<path d="M14.9752 12.3656C14.9751 11.0737 13.9281 10.0266 12.6362 10.0266C11.3444 10.0267 10.2973 11.0737 10.2973 12.3656C10.2973 13.6575 11.3443 14.7045 12.6362 14.7045V15.4047C10.9577 15.4047 9.59706 14.0441 9.59706 12.3656C9.59712 10.6871 10.9578 9.32646 12.6362 9.3264C14.3147 9.3264 15.6753 10.6871 15.6754 12.3656C15.6754 14.0441 14.3148 15.4047 12.6362 15.4047V14.7045C13.9281 14.7045 14.9752 13.6575 14.9752 12.3656Z" fill="white"/>
<path d="M11.0751 4.36963C11.075 2.67165 9.69794 1.29541 7.99992 1.29541C6.30204 1.29557 4.92586 2.67175 4.9257 4.36963C4.9257 6.06765 6.30194 7.44466 7.99992 7.44482V8.14502L7.80558 8.14014C5.81131 8.03886 4.22551 6.38907 4.22551 4.36963C4.22567 2.28515 5.91544 0.595376 7.99992 0.595215C10.0845 0.595215 11.7751 2.28505 11.7753 4.36963L11.7704 4.56396C11.6694 6.55852 10.0196 8.14502 7.99992 8.14502V7.44482C9.69804 7.44482 11.0751 6.06774 11.0751 4.36963Z" fill="white"/>
<path d="M4.49489 11.5261C4.53697 11.5262 4.57729 11.5429 4.60691 11.5728L4.71686 11.684C4.778 11.7459 4.77788 11.8457 4.71645 11.9072L3.09525 13.5739C3.06556 13.6036 3.02524 13.6202 2.98323 13.6202C2.94122 13.6202 2.90088 13.6036 2.87121 13.5739L2.01101 12.7116C1.94942 12.6499 1.9495 12.5498 2.01101 12.488L2.12055 12.378C2.1502 12.3482 2.19053 12.3314 2.23257 12.3313C2.27459 12.3313 2.31487 12.3479 2.34459 12.3776L2.98323 13.0167L4.38245 11.5724C4.41224 11.5426 4.45274 11.526 4.49489 11.5261Z" fill="white"/>
<path d="M13.4468 11.2612C13.4889 11.2613 13.5292 11.278 13.5588 11.3079L13.6688 11.4191C13.7299 11.481 13.7298 11.5808 13.6684 11.6423L12.0472 13.309L11.9351 12.7518L13.3344 11.3075C13.3641 11.2777 13.4047 11.2611 13.4468 11.2612Z" fill="white"/>
<path d="M11.8255 13.47C11.7834 13.4699 11.7431 13.4532 11.7135 13.4233L11.6035 13.3121C11.5424 13.2502 11.5425 13.1505 11.6039 13.0889L13.2251 11.4222L13.3371 11.9794L11.9379 13.4237C11.9081 13.4535 11.8676 13.4701 11.8255 13.47Z" fill="white"/>
<path d="M13.7409 13.1761C13.7408 13.2182 13.724 13.2585 13.6942 13.2882L13.583 13.3981C13.5211 13.4593 13.4213 13.4591 13.3597 13.3977L11.6931 11.7765L12.2503 11.6645L13.6946 13.0637C13.7244 13.0935 13.741 13.134 13.7409 13.1761Z" fill="white"/>
<path d="M11.5321 11.5548C11.5322 11.5127 11.5489 11.4724 11.5788 11.4428L11.69 11.3329C11.7518 11.2717 11.8516 11.2718 11.9132 11.3333L13.5798 12.9545L13.0226 13.0665L11.5784 11.6673C11.5485 11.6375 11.532 11.597 11.5321 11.5548Z" fill="white"/>
<path d="M7.75005 10.9444V8.14464H8.25005V10.9444C8.2502 11.6347 8.80979 12.1944 9.50005 12.1944H10.0313V12.6944H9.50005C8.53364 12.6944 7.7502 11.9108 7.75005 10.9444Z" fill="white"/>
<path d="M8.25005 10.9444V7.80089H7.75005V10.9444C7.74988 11.6347 7.1903 12.1944 6.50005 12.1944H5.9688V12.6944H6.50005C7.46644 12.6944 8.24988 11.9108 8.25005 10.9444Z" fill="white"/>
</g>
<defs>
<clipPath id="clip0_4281_19013">
<rect width="16" height="16" fill="white"/>
</clipPath>
</defs>
</svg>
