<svg width="32" height="32" viewBox="0 0 32 32" fill="none" xmlns="http://www.w3.org/2000/svg">
<path d="M20.0712 17.3237C14.9623 17.3237 10.8878 20.0015 10.8878 23.33V24.6647C10.8878 25.866 11.6364 26.6668 12.7595 26.6668H27.4609C28.584 26.6668 29.3326 25.866 29.3326 24.6647L29.3327 23.33C29.3327 20.0015 25.1801 17.3237 20.0712 17.3237Z" fill="white"/>
<path d="M24.8358 10.3387C24.8358 13.1031 22.7026 15.344 20.0712 15.344C17.4398 15.344 15.3067 13.1031 15.3067 10.3387C15.3067 7.57442 17.4398 5.3335 20.0712 5.3335C22.7026 5.3335 24.8358 7.57442 24.8358 10.3387Z" fill="white"/>
<path d="M12.6587 12.2628C12.9823 12.2628 13.247 12.5959 13.247 13.0031V14.3483C13.247 14.7554 12.9823 15.0886 12.6587 15.0886H7.21721L3.25428 15.0886C2.93073 15.0886 2.66602 14.7554 2.66602 14.3483L2.66602 13.0031C2.66602 12.5959 2.93073 12.2628 3.25428 12.2628L12.6587 12.2628Z" fill="white"/>
<path d="M9.2774 18.7053C9.2774 19.0513 8.96597 19.3345 8.58533 19.3345H7.32766C6.94702 19.3345 6.63558 19.0513 6.63558 18.7053L6.63558 12.8849V8.64607C6.63558 8.30001 6.94702 8.01686 7.32766 8.01686H8.58533C8.96597 8.01686 9.2774 8.30001 9.2774 8.64607V18.7053Z" fill="white"/>
</svg>
