<svg width="20" height="20" viewBox="0 0 20 20" fill="none" xmlns="http://www.w3.org/2000/svg">
<path fill-rule="evenodd" clip-rule="evenodd" d="M9.998 4.88321C7.21095 4.88321 4.9516 7.14256 4.9516 9.92961C4.9516 11.1266 5.36833 12.2262 6.06462 13.0913C6.78616 12.2314 8.37969 11.6348 10.0292 11.6348C11.6545 11.6348 13.2255 12.214 13.9615 13.0536C14.6397 12.1943 15.0444 11.1092 15.0444 9.92961C15.0444 7.14256 12.7851 4.88321 9.998 4.88321ZM10.0292 10.8252C11.1803 10.8252 12.1134 9.9087 12.1134 8.77818C12.1134 7.64766 11.1803 6.73119 10.0292 6.73119C8.87816 6.73119 7.94503 7.64766 7.94503 8.77818C7.94503 9.9087 8.87816 10.8252 10.0292 10.8252Z" fill="white"/>
<path fill-rule="evenodd" clip-rule="evenodd" d="M2.5 10C2.5 5.85786 5.85786 2.5 10 2.5C14.1421 2.5 17.5 5.85786 17.5 10C17.5 14.1421 14.1421 17.5 10 17.5C5.85786 17.5 2.5 14.1421 2.5 10ZM10 3.51913C6.42071 3.51913 3.51913 6.42071 3.51913 10C3.51913 13.5793 6.42071 16.4809 10 16.4809C13.5793 16.4809 16.4809 13.5793 16.4809 10C16.4809 6.42071 13.5793 3.51913 10 3.51913Z" fill="white"/>
</svg>
