<svg width="20" height="20" viewBox="0 0 20 20" fill="none" xmlns="http://www.w3.org/2000/svg">
<path d="M15.332 3.33301C16.9888 3.33301 18.3319 4.6763 18.332 6.33301V13.1543C18.3318 14.8109 16.9887 16.1543 15.332 16.1543H4.66602C3.00931 16.1543 1.66626 14.8109 1.66602 13.1543L1.66602 6.33301C1.66619 4.6763 3.00927 3.33301 4.66602 3.33301L15.332 3.33301ZM7.43457 10.2207C5.46635 10.2208 3.58887 11.1866 3.58887 12.3867V12.8682C3.58901 13.301 3.87716 13.5897 4.30957 13.5898L10.5596 13.5898C10.9922 13.5898 11.2811 13.3011 11.2813 12.8682V12.3867C11.2813 11.1865 9.40291 10.2207 7.43457 10.2207ZM12.5635 8.46191C12.2095 8.46191 11.9219 8.74852 11.9219 9.10254C11.9219 9.45657 12.2094 9.74316 12.5635 9.74316H14.4863C14.8403 9.7431 15.127 9.45653 15.127 9.10254C15.1269 8.74856 14.8403 8.46198 14.4863 8.46191H12.5635ZM7.43457 5.89746C6.42093 5.89764 5.59965 6.70554 5.59961 7.70215C5.59961 8.69879 6.42091 9.50666 7.43457 9.50684C8.44838 9.50684 9.27051 8.6989 9.27051 7.70215C9.27047 6.70543 8.44836 5.89746 7.43457 5.89746ZM12.5635 5.89746C12.2096 5.89746 11.9221 6.18423 11.9219 6.53809C11.9219 6.89211 12.2094 7.17969 12.5635 7.17969H15.127C15.481 7.17969 15.7686 6.89211 15.7686 6.53809C15.7684 6.18423 15.4809 5.89746 15.127 5.89746H12.5635Z" fill="white"/>
</svg>
