<svg width="70" height="52" viewBox="0 0 70 52" fill="none" xmlns="http://www.w3.org/2000/svg">
<g clip-path="url(#clip0_4298_8603)">
<path d="M56.6136 11.9997L29.0487 5.40588C27.4318 5.01911 25.8079 6.02659 25.4215 7.65616L13.6207 57.4264C13.2343 59.0559 14.2319 60.6905 15.8487 61.0773L43.4136 67.6711C45.0305 68.0579 46.6544 67.0504 47.0408 65.4208L58.8416 15.6506C59.228 14.021 58.2304 12.3865 56.6136 11.9997Z" fill="#869ECB"/>
<path d="M13.3032 57.3563L25.1073 7.58627C25.5348 5.78538 27.3356 4.66853 29.1217 5.09553L56.6863 11.6916C58.4732 12.1195 59.579 13.9321 59.1523 15.7331L47.3482 65.5031C46.9207 67.304 45.1199 68.4209 43.3329 67.9938L15.7683 61.3977C13.9815 60.9698 12.8757 59.1572 13.3022 57.3571L13.3032 57.3563ZM28.9729 5.72684C27.5311 5.38148 26.0778 6.28298 25.7328 7.73606L13.9286 57.5061C13.5836 58.9592 14.4762 60.422 15.918 60.7674L43.4825 67.3634C44.9243 67.7088 46.3776 66.8073 46.7226 65.3542L58.5268 15.5842C58.8718 14.1311 57.9792 12.6683 56.5374 12.3229L28.9729 5.72684Z" fill="#869ECB"/>
<path d="M54.8685 11.5818L28.9676 5.386C27.3955 5.00994 25.8165 5.98951 25.4409 7.57395L13.6013 57.5076C13.2257 59.092 14.1956 60.6813 15.7676 61.0574L41.6685 67.2532C43.2406 67.6292 44.8196 66.6496 45.1953 65.0652L57.0348 15.1316C57.4105 13.5471 56.4406 11.9578 54.8685 11.5818Z" fill="#605634"/>
<path d="M13.2837 57.4375L25.1271 7.50428C25.5439 5.74891 27.2991 4.6591 29.0417 5.07639L54.9421 11.2737C56.6838 11.6909 57.762 13.4575 57.346 15.2139L45.5026 65.1471C45.0858 66.9024 43.3305 67.9922 41.5888 67.575L15.6884 61.3777C13.9467 60.9605 12.8677 59.1938 13.2845 57.4376L13.2837 57.4375ZM28.8921 5.70675C27.4955 5.37213 26.0869 6.24564 25.7525 7.65407L13.9091 57.5873C13.5748 58.9948 14.4397 60.4126 15.8372 60.7473L41.7376 66.9446C43.1342 67.2792 44.5428 66.4057 44.8771 64.9973L56.7205 15.0641C57.0548 13.6565 56.1899 12.2387 54.7925 11.904L28.8921 5.70675Z" fill="#869ECB"/>
<path d="M43.8503 12.199L37.2522 10.5887C35.9764 10.2774 35.1929 8.98027 35.5039 7.69451L35.7219 6.79311L46.9437 9.53177L46.7257 10.4332C46.4147 11.7189 45.126 12.5103 43.8503 12.199Z" fill="#869ECB"/>
<path d="M53.8246 29.9019C53.756 30.1826 53.9262 30.4658 54.2047 30.5344C54.4832 30.603 54.7646 30.4311 54.8331 30.1504L55.5813 27.0874C55.6498 26.8067 55.4797 26.5235 55.2011 26.4549C54.9226 26.3862 54.6413 26.5581 54.5727 26.8388L53.8246 29.9019Z" fill="#3F5394"/>
<path d="M52.6195 34.8814C52.5509 35.1621 52.7211 35.4453 52.9996 35.5139C53.2781 35.5825 53.5595 35.4106 53.628 35.1299L54.3762 32.0669C54.4448 31.7862 54.2746 31.503 53.9961 31.4344C53.7176 31.3657 53.4362 31.5376 53.3677 31.8183L52.6195 34.8814Z" fill="#3F5394"/>
<mask id="mask0_4298_8603" style="mask-type:luminance" maskUnits="userSpaceOnUse" x="-2" y="2" width="59" height="66">
<path d="M28.7413 5.79888C27.3447 5.46426 25.9361 6.33777 25.6017 7.7462L4.20467 2.19852L-1.14096 18.7178L7.83878 54.0203C7.50451 55.4278 14.2889 60.5047 15.6864 60.8394L41.5868 67.0367C42.9834 67.3713 44.3919 66.4978 44.7263 65.0894L56.5697 15.1562C56.904 13.7487 56.0391 12.3309 54.6417 11.9962L28.7413 5.79888Z" fill="white"/>
</mask>
<g mask="url(#mask0_4298_8603)">
<path d="M45.8603 31.3112C45.8603 31.3112 44.627 33.5336 42.7859 34.2396C42.8418 34.1065 43.7216 29.8749 43.7216 29.8749L45.8614 31.3112L45.8603 31.3112Z" fill="#242020"/>
<path d="M43.6999 20.3943C44.1178 20.6274 44.5084 20.9309 44.8599 21.3093C48.0028 24.6955 45.5536 30.8175 42.4218 33.4728C40.6885 34.943 38.4099 35.0277 36.2891 34.2868C32.5244 32.9709 32.1873 29.7629 32.8394 26.6459C33.6468 22.7883 34.5027 20.2726 36.1809 19.869C38.4485 19.3233 41.7232 19.2894 43.6998 20.3953L43.6999 20.3943Z" fill="#D88C62"/>
<path d="M43.6225 31.6615C44.1714 32.2719 45.172 32.5594 45.9655 32.3262C46.759 32.093 47.4396 31.3879 47.6885 30.5435C47.9114 29.7856 47.7648 28.903 47.2277 28.4041C46.6917 27.9053 45.681 27.8817 45.1668 28.4672L43.6225 31.6615Z" fill="#D88C62"/>
<path d="M38.1064 44.8049C39.4244 45.0494 42.4505 44.2496 43.0916 39.4641L43.0969 29.5706L37.2166 29.4145L34.8822 38.8243C34.1525 43.432 37.3261 44.6313 38.1064 44.8038L38.1064 44.8049Z" fill="#D88C62"/>
<path d="M35.6566 35.5884L35.9649 34.159C35.9649 34.159 38.8371 35.3007 41.6959 32.8912C41.6959 32.8912 39.9931 35.5549 35.6566 35.5884Z" fill="#C6654C"/>
<path d="M45.3057 30.5782C45.7547 30.649 46.1635 30.4234 46.2187 30.0752C46.2597 29.8142 46.0905 29.5581 45.8142 29.4167" stroke="#C6654C" stroke-width="1.06869" stroke-miterlimit="10" stroke-linecap="round"/>
<path d="M44.049 19.4777C40.7262 17.9498 37.7809 18.2445 35.5376 19.8213C34.2952 20.8171 33.9615 22.6242 33.9615 22.6242C37.2506 24.5953 44.0192 23.6987 44.0192 23.6987C41.3725 26.9727 43.6615 29.4875 43.7796 29.6981C43.7708 29.8298 44.1522 30.0504 44.1522 30.0504L45.1644 28.4566C45.9905 27.6255 47.2238 28.3943 47.2238 28.3943C47.9799 25.7818 48.0317 21.3095 44.05 19.4778L44.049 19.4777Z" fill="#242020"/>
<path d="M6.45533 18.9053L12.9215 18.9963C12.9215 18.9963 12.3381 28.0515 15.4772 35.1649C15.7267 35.7317 22.2961 36.6911 28.2059 37.4463C28.1597 40.2255 28.1331 43.006 28.1154 45.7859C24.3951 45.4591 19.6306 44.9731 14.5605 44.2858C3.88588 42.8374 6.45643 18.9053 6.45643 18.9053L6.45533 18.9053Z" fill="#D88C62"/>
<path d="M12.3908 21.0756L12.3116 23.3144C12.3107 23.5249 6.70877 22.0872 6.70877 22.0872C6.70877 22.0872 5.10345 12.3501 5.3046 11.6366C5.50576 10.9232 6.6694 14.5077 6.6694 14.5077C6.6694 14.5077 6.21829 10.9125 6.58778 9.82953C6.8811 8.96767 8.33114 13.6186 8.33114 13.6186C8.21854 11.772 7.79475 8.35923 8.37504 8.22656C9.10234 8.06029 9.81716 13.8016 9.81716 13.8016C9.81716 13.8016 9.64168 9.74127 10.2839 9.38772C10.926 9.03527 12.1015 16.716 12.1015 16.716C12.1015 16.716 13.0396 15.1811 14.6743 14.9119C15.0902 14.8436 15.5008 15.2313 15.6039 15.5278C13.7265 16.5585 12.3907 21.0767 12.3907 21.0767L12.3908 21.0756Z" fill="#D88C62"/>
<path d="M42.9698 36.6489C42.9698 36.6489 38.2279 39.2001 35.7037 35.9177C35.7037 35.9177 30.5541 34.5079 27.2312 34.3711C23.0414 33.9495 17.5471 33.8411 17.5471 33.8411L14.7554 45.8508C14.7554 45.8508 18.7747 48.004 22.7324 49.7882L20.7606 68.9897L55.6211 79.2004C55.6211 79.2004 61.4574 52.7475 57.0479 44.5807C55.8769 42.412 51.5564 38.5883 42.9698 36.6489Z" fill="#ECC2E8"/>
<path d="M35.1867 25.2019L35.1495 25.1929C34.9407 25.1424 34.7305 25.2723 34.6798 25.4829L34.5414 26.0588C34.4908 26.2694 34.619 26.4811 34.8278 26.5315L34.8651 26.5405C35.0738 26.5909 35.2841 26.4611 35.3347 26.2505L35.4731 25.6745C35.5237 25.4639 35.3955 25.2523 35.1867 25.2019Z" fill="black"/>
<path d="M38.2004 26.1819L38.1632 26.1729C37.9544 26.1224 37.7441 26.2523 37.6935 26.4629L37.5551 27.0388C37.5045 27.2494 37.6327 27.461 37.8415 27.5115L37.8787 27.5205C38.0875 27.5709 38.2978 27.4411 38.3484 27.2304L38.4868 26.6545C38.5374 26.4439 38.4092 26.2323 38.2004 26.1819Z" fill="black"/>
<path d="M35.0467 28.3375L36.8668 28.8109C36.8668 28.8109 36.5681 29.6334 35.6285 29.4335C34.8445 29.2665 35.0467 28.3375 35.0467 28.3375Z" fill="#1D0300"/>
<mask id="mask1_4298_8603" style="mask-type:luminance" maskUnits="userSpaceOnUse" x="35" y="28" width="2" height="2">
<path d="M35.0467 28.338L36.8672 28.8104C36.8672 28.8104 36.5682 29.6323 35.6284 29.4329C34.8441 29.2664 35.0467 28.338 35.0467 28.338Z" fill="white"/>
</mask>
<g mask="url(#mask1_4298_8603)">
<path d="M36.4566 30.3286C36.155 30.6887 35.6749 30.7584 35.3832 30.4846C35.0915 30.2109 35.1001 29.6974 35.4017 29.3373C35.7034 28.9772 36.1835 28.9075 36.4752 29.1813C36.7669 29.455 36.7583 29.9685 36.4566 30.3286Z" fill="#C65C68"/>
</g>
</g>
<path d="M18.9839 8.49498L21.8347 8.16699L19.1576 7.2854L18.9364 3.58454L17.9882 7.11351L15.1374 7.44206L17.814 8.3236L18.0357 12.0245L18.9839 8.49498Z" fill="#F7E08E"/>
<path d="M29.5264 18.1452L31.4926 17.919L29.6462 17.3109L29.4936 14.7584L28.8397 17.1924L26.8734 17.419L28.7195 18.027L28.8724 20.5795L29.5264 18.1452Z" fill="#F7E08E"/>
</g>
<defs>
<clipPath id="clip0_4298_8603">
<rect width="69.6429" height="52" fill="white"/>
</clipPath>
</defs>
</svg>
