<svg width="202" height="156" viewBox="0 0 202 156" fill="none" xmlns="http://www.w3.org/2000/svg">
<path d="M49.4847 143.468C60.5767 145.218 74.6777 145.024 90.0797 142.663C90.0994 135.784 92.6211 131.163 95.5091 128.267C86.4046 129.833 78.0385 130.109 71.4954 129.223C61.7446 133.416 53.8836 139.228 49.4847 143.468Z" fill="#0C1D4B"/>
<path d="M47.2167 101.38C33.0074 109.798 24.5616 119.292 25.2576 127.576C37.6224 121.069 48.9072 117.595 58.855 116.126C61.1489 112.189 66.4723 108.059 73.7755 104.424C66.1155 101.795 57.207 100.382 47.2912 101.336L47.2167 101.38Z" fill="#0C1D4B"/>
<path d="M105.278 81.3837C101.057 82.0919 96.7467 82.9609 92.3823 83.9949L95.4329 96.7987C97.531 96.3017 99.6061 95.8705 101.646 95.5036C102.306 89.935 103.466 84.8968 105.278 81.3837Z" fill="#0C1D4B"/>
<path d="M92.3648 83.999C88.0004 85.0331 83.7592 86.1901 79.6698 87.4508C82.8721 89.7761 86.1808 93.7555 89.2821 98.4329C91.2696 97.8456 93.3174 97.3 95.4154 96.8028L92.3648 83.999Z" fill="#0C1D4B"/>
<path d="M120.884 135.365C135.705 130.565 148.386 124.414 157.504 117.875C151.662 116.062 142.02 114.397 131.42 115.026C125.976 118.752 118.379 122.257 109.541 124.942C113.427 126.233 117.763 129.229 120.884 135.365Z" fill="#0C1D4B"/>
<path d="M140.239 102.04C139.829 100.318 138.637 98.8514 136.802 97.6581C123.763 101.959 114.638 108.482 108.829 114.589C108.08 115.376 107.387 116.156 106.747 116.924C110.419 116.643 113.503 116.993 115.343 117.9C120.707 116.209 126.18 115.337 131.42 115.026C137.769 110.68 141.191 106.035 140.239 102.04Z" fill="#0C1D4B"/>
<path d="M171.974 92.8158C168.859 85.1045 157.033 80.4132 140.545 79.2678L140.459 79.2619C131.172 82.8575 123.853 88.1153 118.198 93.8993C126.36 93.8699 132.978 95.1715 136.802 97.6581C146.349 94.5085 157.995 92.5495 171.974 92.8158Z" fill="#0C1D4B"/>
<path d="M117.565 94.5558C117.774 94.3363 117.985 94.1174 118.198 93.8993C113.169 93.9175 107.555 94.4408 101.646 95.5036C100.787 102.748 100.775 110.89 101.278 117.739C102.093 117.562 102.897 117.411 103.684 117.287C105.948 110.568 110.351 102.151 117.565 94.5558Z" fill="#0C1D4B"/>
<path d="M73.7755 104.424C74.0643 104.523 74.3514 104.624 74.6366 104.727C84.5059 108.274 92.2348 113.818 97.2876 118.803C98.0468 118.561 98.8324 118.334 99.6401 118.127C96.9998 111.784 93.3166 104.518 89.2821 98.4329C83.5255 100.134 78.2748 102.185 73.7755 104.424Z" fill="#0C1D4B"/>
<path d="M58.855 116.126C57.7542 118.015 57.351 119.859 57.7615 121.581C58.7132 125.576 63.8646 128.19 71.4954 129.223C76.3172 127.15 81.6012 125.473 87.1572 124.578C88.3908 122.943 90.985 121.249 94.3893 119.853C93.4713 119.454 92.4996 119.068 91.4756 118.701C83.5319 115.851 72.4402 114.119 58.855 116.126Z" fill="#0C1D4B"/>
<path d="M86.4203 127.058C86.6327 127.95 87.4258 128.651 88.6548 129.146C90.9088 128.907 93.2319 128.583 95.6049 128.172C97.8796 127.777 100.2 127.303 102.55 126.747L102.562 126.744L102.567 126.743C104.917 126.186 107.204 125.569 109.413 124.901C111.72 124.203 113.944 123.45 116.066 122.652C116.941 121.658 117.333 120.676 117.12 119.785C116.935 119.009 116.311 118.377 115.343 117.9C113.503 116.993 110.419 116.643 106.747 116.924C105.764 116.999 104.739 117.12 103.684 117.287C102.897 117.411 102.093 117.562 101.278 117.739C101.008 117.797 100.738 117.859 100.466 117.923L100.461 117.924L100.448 117.927C100.177 117.992 99.9072 118.058 99.6401 118.127C98.8324 118.334 98.0468 118.561 97.2876 118.803C96.2705 119.127 95.3008 119.479 94.3893 119.853C90.985 121.249 88.3908 122.943 87.1572 124.578C86.508 125.439 86.2356 126.283 86.4203 127.058Z" fill="#0C1D4B"/>
<path fill-rule="evenodd" clip-rule="evenodd" d="M105.302 81.3797C118.169 79.2224 130.211 78.5584 140.459 79.2619C131.172 82.8575 123.853 88.1153 118.198 93.8993C113.169 93.9175 107.555 94.4408 101.646 95.5036C102.306 89.935 103.466 84.8968 105.278 81.3837L105.302 81.3797Z" fill="url(#paint0_radial_4325_12696)"/>
<path fill-rule="evenodd" clip-rule="evenodd" d="M105.302 81.3797C118.169 79.2224 130.211 78.5584 140.459 79.2619C131.172 82.8575 123.853 88.1153 118.198 93.8993C113.169 93.9175 107.555 94.4408 101.646 95.5036C102.306 89.935 103.466 84.8968 105.278 81.3837L105.302 81.3797Z" fill="#275CFD" fill-opacity="0.15"/>
<path fill-rule="evenodd" clip-rule="evenodd" d="M171.974 92.8158C172.182 93.3311 172.351 93.8599 172.48 94.402C174.214 101.68 168.409 110.055 157.504 117.875C151.662 116.062 142.02 114.397 131.42 115.026C137.769 110.68 141.191 106.035 140.239 102.04C139.829 100.318 138.637 98.8514 136.802 97.6581C146.349 94.5085 157.995 92.5495 171.974 92.8158Z" fill="url(#paint1_radial_4325_12696)"/>
<path fill-rule="evenodd" clip-rule="evenodd" d="M171.974 92.8158C172.182 93.3311 172.351 93.8599 172.48 94.402C174.214 101.68 168.409 110.055 157.504 117.875C151.662 116.062 142.02 114.397 131.42 115.026C137.769 110.68 141.191 106.035 140.239 102.04C139.829 100.318 138.637 98.8514 136.802 97.6581C146.349 94.5085 157.995 92.5495 171.974 92.8158Z" fill="#275CFD" fill-opacity="0.15"/>
<path fill-rule="evenodd" clip-rule="evenodd" d="M119.911 135.677C115.337 137.131 110.565 138.455 105.636 139.623L102.585 126.819C102.732 126.784 102.878 126.749 103.024 126.714C105.259 126.176 107.435 125.582 109.541 124.942C113.427 126.233 117.763 129.229 120.884 135.365C120.561 135.469 120.236 135.573 119.911 135.677Z" fill="url(#paint2_radial_4325_12696)"/>
<path fill-rule="evenodd" clip-rule="evenodd" d="M119.911 135.677C115.337 137.131 110.565 138.455 105.636 139.623L102.585 126.819C102.732 126.784 102.878 126.749 103.024 126.714C105.259 126.176 107.435 125.582 109.541 124.942C113.427 126.233 117.763 129.229 120.884 135.365C120.561 135.469 120.236 135.573 119.911 135.677Z" fill="#275CFD" fill-opacity="0.15"/>
<path fill-rule="evenodd" clip-rule="evenodd" d="M79.6465 87.458C67.181 91.3028 56.1263 96.111 47.2912 101.336C57.207 100.382 66.1155 101.795 73.7755 104.424C78.2748 102.185 83.5255 100.134 89.2821 98.4329C86.1808 93.7555 82.8721 89.7761 79.6698 87.4508L79.6465 87.458Z" fill="url(#paint3_radial_4325_12696)"/>
<path fill-rule="evenodd" clip-rule="evenodd" d="M79.6465 87.458C67.181 91.3028 56.1263 96.111 47.2912 101.336C57.207 100.382 66.1155 101.795 73.7755 104.424C78.2748 102.185 83.5255 100.134 89.2821 98.4329C86.1808 93.7555 82.8721 89.7761 79.6698 87.4508L79.6465 87.458Z" fill="#275CFD" fill-opacity="0.15"/>
<path fill-rule="evenodd" clip-rule="evenodd" d="M25.2576 127.576C25.3041 128.13 25.3914 128.678 25.5206 129.22C27.2546 136.498 36.217 141.374 49.4847 143.468C53.8836 139.228 61.7446 133.416 71.4954 129.223C63.8646 128.19 58.7132 125.576 57.7615 121.581C57.351 119.859 57.7542 118.015 58.855 116.126C48.9072 117.595 37.6224 121.069 25.2576 127.576Z" fill="url(#paint4_radial_4325_12696)"/>
<path fill-rule="evenodd" clip-rule="evenodd" d="M25.2576 127.576C25.3041 128.13 25.3914 128.678 25.5206 129.22C27.2546 136.498 36.217 141.374 49.4847 143.468C53.8836 139.228 61.7446 133.416 71.4954 129.223C63.8646 128.19 58.7132 125.576 57.7615 121.581C57.351 119.859 57.7542 118.015 58.855 116.126C48.9072 117.595 37.6224 121.069 25.2576 127.576Z" fill="#275CFD" fill-opacity="0.15"/>
<path fill-rule="evenodd" clip-rule="evenodd" d="M91.0893 142.505C95.83 141.752 100.69 140.795 105.619 139.627L102.568 126.823C102.421 126.858 102.275 126.892 102.129 126.926C99.89 127.448 97.6786 127.894 95.5091 128.267C92.6211 131.163 90.0994 135.784 90.0797 142.663C90.4156 142.611 90.7521 142.559 91.0893 142.505Z" fill="url(#paint5_radial_4325_12696)"/>
<path fill-rule="evenodd" clip-rule="evenodd" d="M91.0893 142.505C95.83 141.752 100.69 140.795 105.619 139.627L102.568 126.823C102.421 126.858 102.275 126.892 102.129 126.926C99.89 127.448 97.6786 127.894 95.5091 128.267C92.6211 131.163 90.0994 135.784 90.0797 142.663C90.4156 142.611 90.7521 142.559 91.0893 142.505Z" fill="#275CFD" fill-opacity="0.15"/>
<path fill-rule="evenodd" clip-rule="evenodd" d="M108.829 114.589C108.08 115.376 107.387 116.156 106.747 116.924C105.764 116.999 104.739 117.12 103.684 117.287C105.948 110.568 110.351 102.151 117.565 94.5558C117.774 94.3363 117.985 94.1174 118.198 93.8993C126.36 93.8699 132.978 95.1715 136.802 97.6581C123.764 101.959 114.638 108.482 108.829 114.589ZM97.2876 118.803C92.2348 113.818 84.5059 108.274 74.6367 104.727C74.3514 104.624 74.0643 104.523 73.7755 104.424C66.4723 108.059 61.1489 112.189 58.855 116.126C72.4402 114.119 83.5319 115.851 91.4756 118.701C92.4996 119.068 93.4713 119.454 94.3893 119.853C95.3008 119.479 96.2705 119.127 97.2876 118.803Z" fill="url(#paint6_radial_4325_12696)"/>
<path fill-rule="evenodd" clip-rule="evenodd" d="M108.829 114.589C108.08 115.376 107.387 116.156 106.747 116.924C105.764 116.999 104.739 117.12 103.684 117.287C105.948 110.568 110.351 102.151 117.565 94.5558C117.774 94.3363 117.985 94.1174 118.198 93.8993C126.36 93.8699 132.978 95.1715 136.802 97.6581C123.764 101.959 114.638 108.482 108.829 114.589ZM97.2876 118.803C92.2348 113.818 84.5059 108.274 74.6367 104.727C74.3514 104.624 74.0643 104.523 73.7755 104.424C66.4723 108.059 61.1489 112.189 58.855 116.126C72.4402 114.119 83.5319 115.851 91.4756 118.701C92.4996 119.068 93.4713 119.454 94.3893 119.853C95.3008 119.479 96.2705 119.127 97.2876 118.803Z" fill="#275CFD" fill-opacity="0.15"/>
<path d="M95.4154 96.8028C93.3174 97.3 91.2696 97.8456 89.2821 98.4329C93.3166 104.518 96.9998 111.784 99.6401 118.127C99.9072 118.058 100.177 117.992 100.448 117.927L95.4154 96.8028Z" fill="url(#paint7_radial_4325_12696)"/>
<path d="M95.4154 96.8028C93.3174 97.3 91.2696 97.8456 89.2821 98.4329C93.3166 104.518 96.9998 111.784 99.6401 118.127C99.9072 118.058 100.177 117.992 100.448 117.927L95.4154 96.8028Z" fill="#275CFD" fill-opacity="0.15"/>
<path d="M101.646 95.5036C99.6061 95.8705 97.531 96.3017 95.4329 96.7987L100.466 117.923C100.738 117.859 101.008 117.797 101.278 117.739C100.775 110.89 100.787 102.748 101.646 95.5036Z" fill="url(#paint8_radial_4325_12696)"/>
<path d="M101.646 95.5036C99.6061 95.8705 97.531 96.3017 95.4329 96.7987L100.466 117.923C100.738 117.859 101.008 117.797 101.278 117.739C100.775 110.89 100.787 102.748 101.646 95.5036Z" fill="#275CFD" fill-opacity="0.15"/>
<path d="M109.541 124.942C118.379 122.257 125.976 118.752 131.42 115.026C126.18 115.337 120.707 116.209 115.343 117.9C116.311 118.377 116.935 119.009 117.12 119.785C117.333 120.676 116.941 121.658 116.066 122.652C113.944 123.45 111.72 124.203 109.413 124.901C109.456 124.914 109.499 124.928 109.541 124.942Z" fill="url(#paint9_radial_4325_12696)"/>
<path d="M109.541 124.942C118.379 122.257 125.976 118.752 131.42 115.026C126.18 115.337 120.707 116.209 115.343 117.9C116.311 118.377 116.935 119.009 117.12 119.785C117.333 120.676 116.941 121.658 116.066 122.652C113.944 123.45 111.72 124.203 109.413 124.901C109.456 124.914 109.499 124.928 109.541 124.942Z" fill="#275CFD" fill-opacity="0.15"/>
<path d="M71.4954 129.223C78.0385 130.109 86.4046 129.833 95.5091 128.267L95.5558 128.22L95.6049 128.172C93.2319 128.583 90.9088 128.907 88.6548 129.146C87.4258 128.651 86.6327 127.95 86.4203 127.058C86.2356 126.283 86.508 125.439 87.1572 124.578C81.6012 125.473 76.3172 127.15 71.4954 129.223Z" fill="url(#paint10_radial_4325_12696)"/>
<path d="M71.4954 129.223C78.0385 130.109 86.4046 129.833 95.5091 128.267L95.5558 128.22L95.6049 128.172C93.2319 128.583 90.9088 128.907 88.6548 129.146C87.4258 128.651 86.6327 127.95 86.4203 127.058C86.2356 126.283 86.508 125.439 87.1572 124.578C81.6012 125.473 76.3172 127.15 71.4954 129.223Z" fill="#275CFD" fill-opacity="0.15"/>
<path opacity="0.75" d="M87.1636 124.571C50.5602 118.035 0.000874372 58.375 0.000874372 58.375L164.238 40.3413C164.238 40.3413 144.427 91.02 115.671 117.987C116.64 118.464 116.941 119.001 117.126 119.777C117.338 120.668 116.946 121.65 116.072 122.644C113.949 123.442 111.726 124.195 109.419 124.893C107.21 125.561 104.923 126.178 102.573 126.735L102.556 126.739C100.206 127.296 97.8857 127.77 95.6111 128.165C93.2382 128.576 90.9151 128.9 88.6611 129.139C87.4321 128.644 86.639 127.942 86.4267 127.051C86.2419 126.275 86.5143 125.431 87.1636 124.571Z" fill="url(#paint11_linear_4325_12696)"/>
<path d="M148.103 15.5868L126.265 87.2275" stroke="#4C74BA" stroke-width="0.75"/>
<path d="M144.985 43.317L137.051 69.3466" stroke="#4C74BA" stroke-width="0.75"/>
<path d="M172.65 34.7826C176.806 41.7872 172.697 51.8898 163.472 57.3473C154.248 62.8048 143.4 61.5506 139.244 54.546L136.746 50.3354L170.152 30.5721L172.65 34.7826Z" fill="#1646D8"/>
<path d="M161.355 53.7801C170.579 48.323 174.688 38.2211 170.532 31.2169C166.376 24.2127 155.53 22.9586 146.306 28.4158C137.081 33.873 132.972 43.9749 137.128 50.979C141.284 57.9832 152.131 59.2373 161.355 53.7801Z" fill="#275CFD"/>
<path d="M170.283 31.5254C174.359 38.3954 170.329 48.304 161.282 53.6567C152.234 59.0093 141.596 57.7793 137.52 50.9092" stroke="#3B6BFF" stroke-width="0.75"/>
<path d="M148.523 31.8994L152.527 38.6464L162.102 36.4246L148.523 31.8994Z" fill="white" fill-opacity="0.602"/>
<path d="M148.517 31.9027L145.968 45.9685L152.521 38.6497L148.517 31.9027Z" fill="white"/>
<path d="M156.628 45.5634L159.349 50.148L162.733 37.4796L156.628 45.5634Z" fill="white" fill-opacity="0.602"/>
<path d="M159.343 50.1511L156.622 45.5657L146.594 47.0269L159.343 50.1511Z" fill="white"/>
<path d="M156.003 44.5067L162.102 36.4249L152.527 38.6484L156.003 44.5067Z" fill="white" fill-opacity="0.2"/>
<path d="M145.966 45.9697L155.996 44.51L152.52 38.6518L145.966 45.9697Z" fill="white" fill-opacity="0.602"/>
<path d="M28.7005 16.0812L87.2485 102.703" stroke="#4C74BA" stroke-width="0.75"/>
<path d="M51.5783 59.2151L72.8509 90.6876" stroke="#4C74BA" stroke-width="0.75"/>
<path d="M121.268 70.4058C118.046 83.0015 101.987 89.7855 85.3992 85.5583C68.8118 81.3311 57.9773 67.6935 61.1997 55.0978L63.1367 47.5264L123.205 62.8344L121.268 70.4058Z" fill="#C05627"/>
<path d="M87.0338 79.1448C103.62 83.3716 119.678 76.5882 122.901 63.9937C126.123 51.3992 115.289 37.7629 98.7024 33.5361C82.1159 29.3093 66.0578 36.0927 62.8356 48.6872C59.6135 61.2817 70.4473 74.918 87.0338 79.1448Z" fill="#FF7D43"/>
<path d="M122.519 64.0337C119.334 76.4824 103.463 83.1873 87.0704 79.0094C70.6773 74.8316 59.9697 61.353 63.1543 48.9043" stroke="#FF8F5C" stroke-width="0.75"/>
<path d="M98.2419 43.7726L95.9768 47.3232C96.7894 47.6872 97.6077 48.0546 98.4005 48.4245L100.649 44.8959L103.665 46.3033L101.355 49.9271C105.088 51.9933 107.613 54.308 106.291 57.0806C105.328 59.1115 103.504 59.7488 101.341 59.584C103.896 61.4327 104.901 63.5261 102.758 66.1641C100.097 69.4405 95.9528 68.7187 90.7474 66.5652L88.4143 70.2235L85.3986 68.816L87.7008 65.2074C86.919 64.8432 86.1215 64.4646 85.3024 64.0661L82.9906 67.6925L79.9786 66.286L82.3136 62.6202C81.6104 62.2877 80.8978 61.9432 80.168 61.6018L76.2436 59.7703L78.5225 57.4154C78.5484 57.4279 80.7316 58.4797 80.714 58.4394C81.568 58.8366 82.0802 58.4934 82.313 58.2372L85.9999 52.4549C86.1108 52.5058 86.2185 52.556 86.319 52.6027C86.2025 52.5322 86.0942 52.478 86.0102 52.4384L88.642 48.31C88.8115 47.8086 88.7443 47.1048 87.5237 46.5346C87.572 46.5186 85.3324 45.5136 85.3324 45.5136L86.8335 43.157L90.9925 45.0997L90.9855 45.111C91.6109 45.4025 92.2581 45.6932 92.9173 45.9882L95.2281 42.3656L98.2419 43.7726ZM87.0739 61.4287C89.1187 62.3813 95.3325 65.6857 97.0773 62.9459C98.899 60.0889 92.2155 57.5271 90.1711 56.5724L87.0739 61.4287ZM91.5922 54.3587C93.2948 55.1532 98.4568 57.9402 100.047 55.449C101.703 52.8495 96.1031 50.7494 94.4003 49.9548L91.5922 54.3587Z" fill="white"/>
<path d="M179.285 57.5322L182.632 56.9236L179.346 56.3234L178.634 52.6992L177.936 56.2716L174.588 56.8802L177.874 57.4804L178.585 61.1046L179.285 57.5322Z" fill="white"/>
<path d="M95.707 20.3662L90.7742 19.469L95.618 18.5843L96.6663 13.2422L97.6959 18.5079L102.631 19.405L97.7871 20.2898L96.7388 25.6318L95.707 20.3662Z" fill="white"/>
<path d="M51.2221 76.112L47.9225 75.5119L51.1625 74.9201L51.8637 71.3467L52.5525 74.869L55.8535 75.4691L52.6135 76.0609L51.9122 79.6343L51.2221 76.112Z" fill="white"/>
<path d="M19.2427 11.8101L16.7856 11.3633L19.1983 10.9226L19.7205 8.26172L20.2333 10.8845L22.6914 11.3314L20.2787 11.7721L19.7566 14.433L19.2427 11.8101Z" fill="white"/>
<path d="M54.8926 19.4634C57.5089 25.7959 52.8678 33.7149 44.5264 37.151C36.185 40.5871 27.3022 38.2391 24.6859 31.9066L23.1133 28.1001L53.32 15.6569L54.8926 19.4634Z" fill="#DED6C1"/>
<path d="M43.196 33.926C51.5371 30.49 56.1781 22.5714 53.562 16.2391C50.9458 9.9069 42.0632 7.55901 33.7221 10.995C25.381 14.4309 20.74 22.3496 23.3561 28.6818C25.9723 35.014 34.8549 37.3619 43.196 33.926Z" fill="white"/>
<path fill-rule="evenodd" clip-rule="evenodd" d="M38.8674 23.3787C41.9081 22.4116 44.3391 21.2149 44.8423 20.486C44.2041 20.2049 42.2244 20.4594 39.7787 21.1404L40.0493 22.2524C39.6288 22.4104 39.1734 22.5552 38.7033 22.7047C38.2332 22.8542 37.7898 22.9831 37.3436 23.1008L37.0757 22C34.6765 22.872 32.8663 23.8229 32.4441 24.4291C33.1895 24.7608 35.8266 24.3457 38.8674 23.3787ZM42.9873 16.441L43.3591 17.9686L39.3047 19.258L39.5617 20.3139C42.4388 19.5199 44.681 19.303 44.8324 19.8599L45.1139 21.0169C45.2359 21.5831 43.2179 22.7211 40.3955 23.7398L41.0269 26.3345L38.3387 27.1894L37.7099 24.606C34.8328 25.4 32.5907 25.6169 32.4393 25.0599L32.155 23.8917C32.033 23.3254 34.051 22.1875 36.8734 21.1688L36.6165 20.113L32.5621 21.4024L32.1903 19.8748L42.9873 16.441ZM30.0133 17.9531L44.2331 13.4308C44.571 13.3233 44.9123 13.36 45.1432 13.5286L50.6088 17.6477C50.8975 17.8584 50.9116 18.2412 50.6577 18.5639L41.3306 30.7035C41.0317 31.1011 40.4294 31.2926 39.9938 31.1287L26.5398 26.2464C26.1739 26.1086 26.0276 25.7678 26.1769 25.4057L29.2874 18.5471C29.4145 18.2888 29.6901 18.0559 30.0133 17.9531Z" fill="#D3B25B"/>
<defs>
<radialGradient id="paint0_radial_4325_12696" cx="0" cy="0" r="1" gradientTransform="matrix(-12.1542 -39.538 123.969 -37.9158 99.0005 111.811)" gradientUnits="userSpaceOnUse">
<stop stop-color="#002071"/>
<stop offset="0.331731" stop-color="#124AAB"/>
<stop offset="0.75" stop-color="#022C76"/>
</radialGradient>
<radialGradient id="paint1_radial_4325_12696" cx="0" cy="0" r="1" gradientTransform="matrix(-12.1542 -39.538 123.969 -37.9158 99.0005 111.811)" gradientUnits="userSpaceOnUse">
<stop stop-color="#002071"/>
<stop offset="0.331731" stop-color="#124AAB"/>
<stop offset="0.75" stop-color="#022C76"/>
</radialGradient>
<radialGradient id="paint2_radial_4325_12696" cx="0" cy="0" r="1" gradientTransform="matrix(-12.1542 -39.538 123.969 -37.9158 99.0005 111.811)" gradientUnits="userSpaceOnUse">
<stop stop-color="#002071"/>
<stop offset="0.331731" stop-color="#124AAB"/>
<stop offset="0.75" stop-color="#022C76"/>
</radialGradient>
<radialGradient id="paint3_radial_4325_12696" cx="0" cy="0" r="1" gradientTransform="matrix(-12.1542 -39.538 123.969 -37.9158 99.0005 111.811)" gradientUnits="userSpaceOnUse">
<stop stop-color="#002071"/>
<stop offset="0.331731" stop-color="#124AAB"/>
<stop offset="0.75" stop-color="#022C76"/>
</radialGradient>
<radialGradient id="paint4_radial_4325_12696" cx="0" cy="0" r="1" gradientTransform="matrix(-12.1542 -39.538 123.969 -37.9158 99.0005 111.811)" gradientUnits="userSpaceOnUse">
<stop stop-color="#002071"/>
<stop offset="0.331731" stop-color="#124AAB"/>
<stop offset="0.75" stop-color="#022C76"/>
</radialGradient>
<radialGradient id="paint5_radial_4325_12696" cx="0" cy="0" r="1" gradientTransform="matrix(-12.1542 -39.538 123.969 -37.9158 99.0005 111.811)" gradientUnits="userSpaceOnUse">
<stop stop-color="#002071"/>
<stop offset="0.331731" stop-color="#124AAB"/>
<stop offset="0.75" stop-color="#022C76"/>
</radialGradient>
<radialGradient id="paint6_radial_4325_12696" cx="0" cy="0" r="1" gradientTransform="matrix(-12.1542 -39.538 123.969 -37.9158 99.0005 111.811)" gradientUnits="userSpaceOnUse">
<stop stop-color="#002071"/>
<stop offset="0.331731" stop-color="#124AAB"/>
<stop offset="0.75" stop-color="#022C76"/>
</radialGradient>
<radialGradient id="paint7_radial_4325_12696" cx="0" cy="0" r="1" gradientTransform="matrix(-12.1542 -39.538 123.969 -37.9158 99.0005 111.811)" gradientUnits="userSpaceOnUse">
<stop stop-color="#002071"/>
<stop offset="0.331731" stop-color="#124AAB"/>
<stop offset="0.75" stop-color="#022C76"/>
</radialGradient>
<radialGradient id="paint8_radial_4325_12696" cx="0" cy="0" r="1" gradientTransform="matrix(-12.1542 -39.538 123.969 -37.9158 99.0005 111.811)" gradientUnits="userSpaceOnUse">
<stop stop-color="#002071"/>
<stop offset="0.331731" stop-color="#124AAB"/>
<stop offset="0.75" stop-color="#022C76"/>
</radialGradient>
<radialGradient id="paint9_radial_4325_12696" cx="0" cy="0" r="1" gradientTransform="matrix(-12.1542 -39.538 123.969 -37.9158 99.0005 111.811)" gradientUnits="userSpaceOnUse">
<stop stop-color="#002071"/>
<stop offset="0.331731" stop-color="#124AAB"/>
<stop offset="0.75" stop-color="#022C76"/>
</radialGradient>
<radialGradient id="paint10_radial_4325_12696" cx="0" cy="0" r="1" gradientTransform="matrix(-12.1542 -39.538 123.969 -37.9158 99.0005 111.811)" gradientUnits="userSpaceOnUse">
<stop stop-color="#002071"/>
<stop offset="0.331731" stop-color="#124AAB"/>
<stop offset="0.75" stop-color="#022C76"/>
</radialGradient>
<linearGradient id="paint11_linear_4325_12696" x1="89.6894" y1="51.9737" x2="108.434" y2="131.807" gradientUnits="userSpaceOnUse">
<stop stop-color="#0C1C47" stop-opacity="0"/>
<stop offset="0.461538" stop-color="#466BCD" stop-opacity="0.55"/>
<stop offset="1" stop-color="#8FB8FF" stop-opacity="0"/>
</linearGradient>
</defs>
</svg>
