<svg width="130" height="24" viewBox="0 0 130 24" fill="none" xmlns="http://www.w3.org/2000/svg">
<path fill-rule="evenodd" clip-rule="evenodd" d="M68.9667 4.16165C70.0954 4.16165 71.0703 4.32716 71.8912 4.65818C72.7249 4.9892 73.3663 5.4921 73.8152 6.16687C74.2641 6.84164 74.4886 7.68831 74.4886 8.70683V9.01236C74.4886 10.0436 74.2577 10.8903 73.7959 11.5523C73.347 12.2144 72.7121 12.7109 71.8912 13.0419C71.837 13.0637 71.7821 13.0848 71.7266 13.1052L75.5752 19.172C75.7128 19.3814 75.5616 19.6589 75.31 19.6589H72.8754C72.7669 19.6589 72.666 19.6038 72.6079 19.5127L68.926 13.5384H65.5886V19.3271C65.5886 19.501 65.4467 19.642 65.2718 19.642H63.1733C62.9983 19.642 62.8565 19.501 62.8565 19.3271V4.47653C62.8565 4.30263 62.9983 4.16165 63.1733 4.16165H68.9667ZM65.5886 11.3423H69.2553C69.7555 11.3423 70.1852 11.2404 70.5444 11.0367C70.9163 10.833 71.205 10.5465 71.4102 10.1773C71.6154 9.8081 71.718 9.38795 71.718 8.91688C71.718 8.43309 71.6154 8.00657 71.4102 7.63736C71.205 7.26814 70.9163 6.98169 70.5444 6.77798C70.1852 6.57428 69.7555 6.47245 69.2553 6.47245H65.5886V11.3423Z" fill="white"/>
<path d="M99.1718 4.16165C99.3468 4.16165 99.4886 4.30263 99.4886 4.47653V6.36032C99.4886 6.53423 99.3468 6.6752 99.1718 6.6752H92.6613V10.4246H98.7927C98.9677 10.4246 99.1096 10.5656 99.1096 10.7395V12.6233C99.1095 12.7972 98.9677 12.9382 98.7927 12.9382H92.6613V16.9389H99.3403C99.5153 16.9389 99.6571 17.0799 99.6571 17.2538V19.3441C99.6571 19.518 99.5153 19.6589 99.3403 19.6589H90.0508C89.8758 19.6589 89.734 19.518 89.7339 19.3441V4.47653C89.7339 4.30263 89.8758 4.16165 90.0508 4.16165H99.1718Z" fill="white"/>
<path d="M117.02 4.16165C117.127 4.16166 117.228 4.21599 117.286 4.30591L120.509 9.29349H120.964L124.179 4.30667C124.237 4.21631 124.337 4.16165 124.445 4.16165H126.885C127.138 4.16165 127.289 4.44102 127.149 4.65034L122.737 11.5585L127.806 19.1707C127.949 19.3797 127.799 19.6628 127.544 19.6628H125.004C124.898 19.6628 124.8 19.6106 124.741 19.5235L120.964 13.6979H120.509L116.901 19.5181C116.843 19.6083 116.742 19.6628 116.634 19.6628H114.194C113.941 19.6628 113.79 19.3837 113.929 19.1744L118.906 11.451L114.187 4.6498C114.048 4.44044 114.199 4.16165 114.452 4.16165H117.02Z" fill="white"/>
<path d="M37.9943 4.15778C38.1019 4.15778 38.2022 4.21212 38.2605 4.30203L41.4837 9.28962H41.9386L45.1531 4.3028C45.2114 4.21244 45.3119 4.15778 45.4199 4.15778H47.8597C48.1123 4.15778 48.2633 4.43715 48.1239 4.64647L43.7113 11.5546L48.7804 19.1668C48.9237 19.3758 48.773 19.6589 48.5186 19.659H45.9785C45.873 19.6589 45.7744 19.6067 45.7155 19.5196L41.9386 13.694H41.4837L37.8753 19.5142C37.8171 19.6044 37.7166 19.6589 37.6088 19.659H35.1681C34.9156 19.659 34.7646 19.3799 34.9037 19.1705L39.88 11.4471L35.1615 4.64593C35.0227 4.43657 35.1738 4.15778 35.4261 4.15778H37.9943Z" fill="white"/>
<path d="M17.6714 11.682C20.2556 11.682 22.3516 9.58853 22.3516 7.00737C22.3516 4.42621 20.2556 2.33015 17.6714 2.33015C15.0872 2.33015 12.9912 4.42362 12.9912 7.00478C12.9912 9.58594 15.0872 11.6794 17.6714 11.6794V11.682Z" fill="#275CFD"/>
<path d="M6.96339 21.4878C9.54818 21.4878 11.6436 19.3949 11.6436 16.8132C11.6436 14.2315 9.54818 12.1386 6.96339 12.1386C4.37859 12.1386 2.2832 14.2315 2.2832 16.8132C2.2832 19.3949 4.37859 21.4878 6.96339 21.4878Z" fill="#275CFD"/>
<path d="M11.5089 2.33015H2.42129C2.34597 2.33015 2.28623 2.395 2.28623 2.47023C2.28623 2.50396 2.30182 2.53768 2.32519 2.56362L11.4129 11.1995C11.4674 11.2514 11.5557 11.2488 11.6076 11.1943C11.631 11.1684 11.644 11.1372 11.6466 11.1035V2.46764C11.6466 2.39241 11.5843 2.33015 11.5089 2.33015Z" fill="#275CFD"/>
<path d="M13.2331 12.6185C13.1863 12.5589 13.098 12.5485 13.0409 12.5952C13.0045 12.6237 12.9863 12.6678 12.9889 12.7145V21.353C12.9889 21.4282 13.0513 21.4904 13.1266 21.4904H22.2116C22.287 21.4904 22.3493 21.4308 22.3519 21.353C22.3519 21.3166 22.3389 21.2829 22.3129 21.257L13.2331 12.6185Z" fill="#275CFD"/>
</svg>
