<svg width="24" height="24" viewBox="0 0 24 24" fill="none" xmlns="http://www.w3.org/2000/svg">
<path d="M17.3355 12.2736C19.9109 12.2736 21.9997 10.1977 21.9997 7.63809C21.9997 5.07852 19.9109 3 17.3355 3C14.7601 3 12.6714 5.07595 12.6714 7.63552C12.6714 10.1951 14.7601 12.271 17.3355 12.271V12.2736Z" fill="#275CFD"/>
<path d="M6.66416 21.9974C9.24011 21.9974 11.3283 19.922 11.3283 17.3619C11.3283 14.8017 9.24011 12.7264 6.66416 12.7264C4.08822 12.7264 2 14.8017 2 17.3619C2 19.922 4.08822 21.9974 6.66416 21.9974Z" fill="#275CFD"/>
<path d="M11.1942 3H2.13761C2.06255 3 2.00302 3.06431 2.00302 3.13891C2.00302 3.17235 2.01855 3.20579 2.04185 3.23152L11.0984 11.7951C11.1528 11.8466 11.2408 11.844 11.2925 11.79C11.3158 11.7643 11.3288 11.7334 11.3313 11.7V3.13634C11.3313 3.06174 11.2692 3 11.1942 3Z" fill="#275CFD"/>
<path d="M12.9124 13.2023C12.8658 13.1431 12.7778 13.1328 12.7209 13.1791C12.6846 13.2074 12.6665 13.2512 12.6691 13.2975V21.8637C12.6691 21.9383 12.7312 22 12.8063 22H21.8602C21.9353 22 21.9974 21.9408 22 21.8637C22 21.8276 21.9871 21.7942 21.9612 21.7685L12.9124 13.2023Z" fill="#275CFD"/>
</svg>
